<svg width="23" height="20" viewBox="0 0 23 20" fill="none" xmlns="http://www.w3.org/2000/svg">
<path d="M11.1266 5C11.1266 3.93913 10.6998 2.92172 9.94018 2.17157C9.18054 1.42143 8.15024 1 7.07595 1H1V16H8.08861C8.89433 16 9.66705 16.3161 10.2368 16.8787C10.8065 17.4413 11.1266 18.2044 11.1266 19M11.1266 5V19M11.1266 5C11.1266 3.93913 11.5533 2.92172 12.313 2.17157C13.0726 1.42143 14.1029 1 15.1772 1H21.2532V16H14.1646C13.3588 16 12.5861 16.3161 12.0164 16.8787C11.4467 17.4413 11.1266 18.2044 11.1266 19" stroke="#5263EB" stroke-width="2" stroke-linecap="round" stroke-linejoin="round"/>
</svg>
