<svg width="23" height="20" viewBox="0 0 23 20" fill="none" xmlns="http://www.w3.org/2000/svg">
<path d="M11.4821 5C11.4821 3.93913 11.0553 2.92172 10.2956 2.17157C9.53601 1.42143 8.50571 1 7.43142 1H1.35547V16H8.44408C9.2498 16 10.0225 16.3161 10.5922 16.8787C11.162 17.4413 11.4821 18.2044 11.4821 19M11.4821 5V19M11.4821 5C11.4821 3.93913 11.9088 2.92172 12.6685 2.17157C13.4281 1.42143 14.4584 1 15.5327 1H21.6086V16H14.52C13.7143 16 12.9416 16.3161 12.3719 16.8787C11.8021 17.4413 11.4821 18.2044 11.4821 19" stroke="#4F4F4F" stroke-width="2" stroke-linecap="round" stroke-linejoin="round"/>
</svg>
