<?xml version="1.0" encoding="UTF-8" standalone="no"?><!DOCTYPE svg PUBLIC "-//W3C//DTD SVG 1.1//EN" "http://www.w3.org/Graphics/SVG/1.1/DTD/svg11.dtd"><svg width="100%" height="100%" viewBox="0 0 24 20" version="1.1" xmlns="http://www.w3.org/2000/svg" xmlns:xlink="http://www.w3.org/1999/xlink" xml:space="preserve" xmlns:serif="http://www.serif.com/" style="fill-rule:evenodd;clip-rule:evenodd;stroke-linejoin:round;stroke-miterlimit:2;"><path d="M22.494,12.347l-0,-6.716l0.266,-0.084c1.025,-0.322 1.24,-0.866 1.24,-1.266c0,-0.401 -0.215,-0.945 -1.24,-1.267l-8.767,-2.751c-0.54,-0.17 -1.248,-0.263 -1.993,-0.263c-0.745,0 -1.453,0.093 -1.993,0.263l-8.767,2.751c-1.025,0.322 -1.24,0.866 -1.24,1.267c0,0.4 0.215,0.945 1.24,1.266l3.279,1.029l-0,5.545c-0,0.688 0.428,1.658 2.466,2.369c1.35,0.471 3.131,0.73 5.015,0.73c1.884,0 3.665,-0.259 5.015,-0.73c2.038,-0.711 2.466,-1.681 2.466,-2.369l0,-5.545l1.607,-0.504l-0,6.275c-0.875,0.308 -1.507,1.173 -1.507,2.191l0,3.151c0,1.274 0.991,2.311 2.21,2.311c1.218,0 2.209,-1.037 2.209,-2.311l0,-3.152c0,-1.017 -0.632,-1.882 -1.506,-2.19Zm-12.083,-10.675c0.407,-0.128 0.986,-0.201 1.589,-0.201c0.603,0 1.182,0.073 1.589,0.201l8.313,2.609l-3.329,1.044c-0.002,0.001 -0.004,0.002 -0.006,0.002l-4.978,1.563c-0.407,0.127 -0.986,0.2 -1.589,0.2c-0.603,0 -1.182,-0.073 -1.588,-0.2l-4.979,-1.563c-0.002,-0 -0.003,-0.001 -0.005,-0.002l-3.33,-1.044l8.313,-2.609Zm7.664,8.517c0,2.027 -0.255,2.47 -1.504,2.905c-1.211,0.423 -2.834,0.655 -4.571,0.655c-1.737,-0 -3.36,-0.232 -4.57,-0.655c-1.25,-0.435 -1.505,-0.878 -1.505,-0.973l0,-5.104l4.082,1.282c0.54,0.169 1.248,0.262 1.993,0.262c0.745,0 1.453,-0.093 1.993,-0.262l4.082,-1.282l0,3.172Zm4.519,7.5c-0,0.463 -0.36,0.84 -0.803,0.84c-0.443,-0 -0.803,-0.377 -0.803,-0.84l-0,-3.151c-0,-0.464 0.36,-0.841 0.803,-0.841c0.443,0 0.803,0.377 0.803,0.841l-0,3.151Z" style="fill:#e1e1e1;fill-rule:nonzero;"/></svg>