<svg width="21" height="20" viewBox="0 0 21 20" fill="none" xmlns="http://www.w3.org/2000/svg">
<path d="M19.5833 9.50003C19.5868 10.8199 19.2745 12.1219 18.6719 13.3C17.9574 14.7118 16.859 15.8992 15.4997 16.7293C14.1404 17.5594 12.5739 17.9994 10.9757 18C9.63915 18.0035 8.32065 17.6951 7.12762 17.1L1.35547 19L3.27952 13.3C2.67692 12.1219 2.36464 10.8199 2.36813 9.50003C2.36875 7.92179 2.81432 6.37488 3.65493 5.03258C4.49555 3.69028 5.698 2.6056 7.12762 1.90003C8.32065 1.30496 9.63915 0.996587 10.9757 1.00003H11.4821C13.5928 1.11502 15.5864 1.99479 17.0812 3.47089C18.576 4.94699 19.4669 6.91568 19.5833 9.00003V9.50003Z" stroke="#4F4F4F" stroke-width="2" stroke-linecap="round" stroke-linejoin="round"/>
</svg>
