<svg width="21" height="20" viewBox="0 0 21 20" fill="none" xmlns="http://www.w3.org/2000/svg">
<path d="M19.2278 9.50003C19.2313 10.8199 18.9191 12.1219 18.3165 13.3C17.602 14.7118 16.5035 15.8992 15.1443 16.7293C13.785 17.5594 12.2185 17.9994 10.6203 18C9.28368 18.0035 7.96518 17.6951 6.77215 17.1L1 19L2.92405 13.3C2.32145 12.1219 2.00917 10.8199 2.01266 9.50003C2.01328 7.92179 2.45885 6.37488 3.29946 5.03258C4.14008 3.69028 5.34254 2.6056 6.77215 1.90003C7.96518 1.30496 9.28368 0.996587 10.6203 1.00003H11.1266C13.2373 1.11502 15.2309 1.99479 16.7257 3.47089C18.2205 4.94699 19.1114 6.91568 19.2278 9.00003V9.50003Z" stroke="#5263EB" stroke-width="2" stroke-linecap="round" stroke-linejoin="round"/>
</svg>
