<svg width="25" height="25" viewBox="0 0 25 25" fill="none" xmlns="http://www.w3.org/2000/svg">
<path d="M4.23408 8.5H14.1692" stroke="white" stroke-width="1.4" stroke-linecap="round"/>
<line x1="4.51971" y1="17.3" x2="11.399" y2="17.3" stroke="white" stroke-width="1.4" stroke-linecap="round"/>
<line x1="4.51971" y1="14.3" x2="11.399" y2="14.3" stroke="white" stroke-width="1.4" stroke-linecap="round"/>
<line x1="4.51971" y1="11.3" x2="11.399" y2="11.3" stroke="white" stroke-width="1.4" stroke-linecap="round"/>
<line y1="-0.7" x2="3.41237" y2="-0.7" transform="matrix(-0.71913 -0.694875 0.71913 -0.694875 16.2224 18.8537)" stroke="white" stroke-width="1.4"/>
<path d="M13.2276 17.0051L12.3787 20.366L15.6816 19.3763L23.885 11.4495C24.7825 8.41434 22.623 8.60407 21.4311 9.07834L13.2276 17.0051Z" stroke="white" stroke-width="1.4"/>
<line y1="-0.7" x2="3.41237" y2="-0.7" transform="matrix(-0.71913 -0.694875 0.71913 -0.694875 23.7949 11.5366)" stroke="white" stroke-width="1.4"/>
<path d="M18.076 12.502V4.50195H14.9712C14.4538 4.50195 14.4538 4.3 14.4538 3.5C14.4538 2.7 14.4538 1.5 14.4538 1H2.03491C1.34497 1.16667 0.999757 1.37711 1 2.5L1.00024 22.5C1.00024 22.8333 1.41421 23.5 3.07006 23.5C4.72591 23.5 12.7292 23.5 16.5238 23.5C17.0413 23.5 18.0762 23.1 18.0762 21.5C18.0762 19.9 18.0762 17.8333 18.0762 17" stroke="white" stroke-width="1.4"/>
<line x1="0.7" y1="-0.7" x2="4.72382" y2="-0.7" transform="matrix(0.719131 0.694875 -0.719131 0.694875 14.1688 1)" stroke="white" stroke-width="1.4" stroke-linecap="round"/>
</svg>
