<?xml version="1.0" encoding="UTF-8" standalone="no"?>
<!DOCTYPE svg PUBLIC "-//W3C//DTD SVG 1.1//EN" "http://www.w3.org/Graphics/SVG/1.1/DTD/svg11.dtd">
<svg width="100%" height="100%" viewBox="0 0 86 85" version="1.1" xmlns="http://www.w3.org/2000/svg" xmlns:xlink="http://www.w3.org/1999/xlink" xml:space="preserve" xmlns:serif="http://www.serif.com/" style="fill-rule:evenodd;clip-rule:evenodd;stroke-linejoin:round;stroke-miterlimit:2;">
    <g>
        <path d="M56.209,30.527L56.209,40.856L58.255,40.856C60.542,40.856 62.143,40.47 63.058,39.7C63.989,38.93 64.454,37.593 64.454,35.691C64.454,33.789 63.989,32.453 63.058,31.682C62.143,30.912 60.542,30.527 58.255,30.527L56.209,30.527Z" style="fill:rgb(82,99,235);fill-rule:nonzero;"/>
        <path d="M4.846,0C2.169,0 0,2.162 0,4.83L0,80.171C0,82.838 2.169,85 4.846,85L80.921,85C83.598,85 85.767,82.838 85.767,80.171L85.767,4.83C85.767,2.162 83.598,0 80.921,0L4.846,0ZM15.506,24.631L15.506,59.886C19.52,59.886 22.774,56.643 22.774,52.642L22.774,45.881L35.373,45.881L35.373,59.886C39.387,59.886 42.641,56.643 42.641,52.642L42.641,31.875C42.641,27.874 39.387,24.631 35.373,24.631L35.373,40.085L22.774,40.085L22.774,31.875C22.774,27.874 19.52,24.631 15.506,24.631ZM56.209,46.704L56.209,52.642C56.209,56.643 52.955,59.886 48.94,59.886L48.94,24.631L56.209,24.631L56.209,24.679L57.995,24.679C62.869,24.679 66.37,25.543 68.5,27.273C70.645,29.002 71.718,31.808 71.718,35.691C71.718,39.574 70.645,42.381 68.5,44.11C66.37,45.839 62.869,46.704 57.995,46.704L56.209,46.704Z" style="fill:rgb(82,99,235);"/>
    </g>
</svg>
