<svg width="158" height="57" viewBox="0 0 158 57" fill="none" xmlns="http://www.w3.org/2000/svg">
<path d="M37.3069 20.4709V27.3973H38.6768C40.208 27.3973 41.2799 27.139 41.8924 26.6224C42.5154 26.1058 42.8269 25.2097 42.8269 23.9341C42.8269 22.6584 42.5154 21.7623 41.8924 21.2457C41.2799 20.7292 40.208 20.4709 38.6768 20.4709H37.3069Z" fill="#5263EB"/>
<path fill-rule="evenodd" clip-rule="evenodd" d="M3.24408 0C1.45242 0 0 1.44999 0 3.23864V53.7614C0 55.55 1.45242 57 3.24408 57H54.1761C55.9678 57 57.4202 55.55 57.4202 53.7614V3.23864C57.4202 1.44999 55.9678 0 54.1761 0H3.24408ZM10.0566 16.517V40.1591C12.7441 40.1591 14.9228 37.9841 14.9228 35.3011V30.767H23.3574V40.1591C26.0449 40.1591 28.2235 37.9841 28.2235 35.3011V21.375C28.2235 18.692 26.0449 16.517 23.3574 16.517V26.8807H14.9228V21.375C14.9228 18.692 12.7441 16.517 10.0566 16.517ZM37.3069 31.319V35.3011C37.3069 37.9841 35.1283 40.1591 32.4408 40.1591V16.5491H37.3069H38.5025C41.7656 16.5491 44.11 17.1289 45.5356 18.2886C46.9718 19.4483 47.6899 21.3301 47.6899 23.9341C47.6899 26.5381 46.9718 28.4199 45.5356 29.5795C44.11 30.7392 41.7656 31.319 38.5025 31.319H37.3069Z" fill="#5263EB"/>
<path d="M85.9272 50.1988L85.9824 26.5568C88.6925 26.5631 90.8843 28.7615 90.878 31.467L90.8457 45.3114C90.8394 48.0169 88.6373 50.2051 85.9272 50.1988Z" fill="#5263EB"/>
<path d="M105.108 50.1989L105.163 26.5569C107.874 26.5632 110.065 28.7616 110.059 31.4671L110.027 45.3115C110.02 48.017 107.818 50.2052 105.108 50.1989Z" fill="#5263EB"/>
<path d="M65.6991 30.3784C65.6991 28.7073 66.0106 27.2402 66.6334 25.9771C67.2757 24.714 68.1419 23.7424 69.2319 23.0623C70.3219 22.3822 71.5385 22.0422 72.8815 22.0422C74.0299 22.0422 75.0323 22.2753 75.8888 22.7417C76.7647 23.2081 77.4362 23.8202 77.9034 24.578V22.2753H82.896V38.5398H77.9034V36.2371C77.4167 36.9949 76.7355 37.607 75.8596 38.0734C75.0031 38.5398 74.0007 38.773 72.8523 38.773C71.5287 38.773 70.3219 38.4329 69.2319 37.7528C68.1419 37.0532 67.2757 36.0719 66.6334 34.8089C66.0106 33.5264 65.6991 32.0495 65.6991 30.3784ZM77.9034 30.4076C77.9034 29.1639 77.553 28.1826 76.8523 27.4636C76.171 26.7447 75.334 26.3852 74.3414 26.3852C73.3487 26.3852 72.502 26.7447 71.8012 27.4636C71.12 28.1632 70.7794 29.1348 70.7794 30.3784C70.7794 31.622 71.12 32.6131 71.8012 33.3515C72.502 34.0705 73.3487 34.4299 74.3414 34.4299C75.334 34.4299 76.171 34.0705 76.8523 33.3515C77.553 32.6325 77.9034 31.6512 77.9034 30.4076Z" fill="#5263EB"/>
<path d="M90.9166 24.578C91.4033 23.8202 92.0748 23.2081 92.9312 22.7417C93.7877 22.2753 94.7901 22.0422 95.9385 22.0422C97.2815 22.0422 98.4981 22.3822 99.5881 23.0623C100.678 23.7424 101.535 24.714 102.157 25.9771C102.8 27.2402 103.121 28.7073 103.121 30.3784C103.121 32.0495 102.8 33.5264 102.157 34.8089C101.535 36.0719 100.678 37.0532 99.5881 37.7528C98.4981 38.4329 97.2815 38.773 95.9385 38.773C94.8096 38.773 93.8071 38.5398 92.9312 38.0734C92.0748 37.607 91.1587 37.0047 90.672 36.2663L88.5636 45.502L85.9683 46.2931L85.924 22.2753H90.9166V24.578ZM98.0406 30.3784C98.0406 29.1348 97.6903 28.1632 96.9896 27.4636C96.3083 26.7447 95.4616 26.3852 94.4495 26.3852C93.4568 26.3852 92.6101 26.7447 91.9093 27.4636C91.2281 28.1826 90.8875 29.1639 90.8875 30.4076C90.8875 31.6512 91.2281 32.6325 91.9093 33.3515C92.6101 34.0705 93.4568 34.4299 94.4495 34.4299C95.4421 34.4299 96.2888 34.0705 96.9896 33.3515C97.6903 32.6131 98.0406 31.622 98.0406 30.3784Z" fill="#5263EB"/>
<path d="M110.149 24.578C110.635 23.8202 111.307 23.2081 112.163 22.7417C113.02 22.2753 114.022 22.0422 115.171 22.0422C116.514 22.0422 117.73 22.3822 118.82 23.0623C119.91 23.7424 120.767 24.714 121.39 25.9771C122.032 27.2402 122.353 28.7073 122.353 30.3784C122.353 32.0495 122.032 33.5264 121.39 34.8089C120.767 36.0719 119.91 37.0532 118.82 37.7528C117.73 38.4329 116.514 38.773 115.171 38.773C114.042 38.773 113.039 38.5398 112.163 38.0734C111.307 37.607 110.461 37.0047 109.974 36.2663L107.055 45.502L105.156 46.2931V22.2753H110.149V24.578ZM117.273 30.3784C117.273 29.1348 116.922 28.1632 116.222 27.4636C115.541 26.7447 114.694 26.3852 113.682 26.3852C112.689 26.3852 111.842 26.7447 111.142 27.4636C110.46 28.1826 110.12 29.1639 110.12 30.4076C110.12 31.6512 110.46 32.6325 111.142 33.3515C111.842 34.0705 112.689 34.4299 113.682 34.4299C114.674 34.4299 115.521 34.0705 116.222 33.3515C116.922 32.6131 117.273 31.622 117.273 30.3784Z" fill="#5263EB"/>
<path d="M139.746 30.1452C139.746 30.6116 139.717 31.0974 139.658 31.6026H128.359C128.437 32.6131 128.758 33.3903 129.323 33.9344C129.907 34.4591 130.617 34.7214 131.454 34.7214C132.7 34.7214 133.566 34.1968 134.053 33.1474H139.366C139.094 34.2162 138.597 35.1781 137.877 36.0331C137.177 36.8881 136.291 37.5585 135.22 38.0443C134.15 38.5301 132.953 38.773 131.629 38.773C130.033 38.773 128.612 38.4329 127.366 37.7528C126.121 37.0727 125.148 36.1011 124.447 34.838C123.746 33.5749 123.396 32.0981 123.396 30.4076C123.396 28.717 123.736 27.2402 124.418 25.9771C125.118 24.714 126.092 23.7424 127.337 23.0623C128.583 22.3822 130.014 22.0422 131.629 22.0422C133.206 22.0422 134.607 22.3725 135.834 23.0332C137.06 23.6939 138.014 24.6363 138.695 25.8605C139.396 27.0847 139.746 28.513 139.746 30.1452ZM134.636 28.8336C134.636 27.9786 134.344 27.2985 133.761 26.7932C133.177 26.288 132.447 26.0354 131.571 26.0354C130.734 26.0354 130.023 26.2783 129.439 26.7641C128.875 27.2499 128.525 27.9397 128.388 28.8336H134.636Z" fill="#5263EB"/>
<path d="M151.723 22.1005C153.63 22.1005 155.148 22.7223 156.277 23.9659C157.426 25.1901 158 26.8807 158 29.0376V38.5398H153.037V29.708C153.037 28.6198 152.754 27.7745 152.19 27.1722C151.625 26.5698 150.866 26.2686 149.913 26.2686C148.959 26.2686 148.2 26.5698 147.635 27.1722C147.071 27.7745 146.788 28.6198 146.788 29.708V38.5398H141.796V22.2753H146.788V24.4323C147.295 23.7133 147.976 23.1498 148.832 22.7417C149.689 22.3142 150.652 22.1005 151.723 22.1005Z" fill="#5263EB"/>
</svg>
