<svg width="58" height="57" viewBox="0 0 58 57" fill="none" xmlns="http://www.w3.org/2000/svg">
<path d="M37.6296 20.4709V27.3973H39.0067C40.5459 27.3973 41.6234 27.139 42.2391 26.6224C42.8655 26.1058 43.1786 25.2097 43.1786 23.9341C43.1786 22.6584 42.8655 21.7623 42.2391 21.2457C41.6234 20.7292 40.5459 20.4709 39.0067 20.4709H37.6296Z" fill="#5263EB"/>
<path fill-rule="evenodd" clip-rule="evenodd" d="M3.38806 0C1.587 0 0.126953 1.44999 0.126953 3.23864V53.7614C0.126953 55.55 1.587 57 3.38806 57H54.5874C56.3884 57 57.8485 55.55 57.8485 53.7614V3.23864C57.8485 1.44999 56.3884 0 54.5874 0H3.38806ZM10.2364 16.517V40.1591C12.938 40.1591 15.128 37.9841 15.128 35.3011V30.767H23.6069V40.1591C26.3085 40.1591 28.4985 37.9841 28.4985 35.3011V21.375C28.4985 18.692 26.3085 16.517 23.6069 16.517V26.8807H15.128V21.375C15.128 18.692 12.938 16.517 10.2364 16.517ZM37.6296 31.319V35.3011C37.6296 37.9841 35.4396 40.1591 32.738 40.1591V16.5491H37.6296H38.8315C42.1117 16.5491 44.4684 17.1289 45.9015 18.2886C47.3452 19.4483 48.0671 21.3301 48.0671 23.9341C48.0671 26.5381 47.3452 28.4199 45.9015 29.5795C44.4684 30.7392 42.1117 31.319 38.8315 31.319H37.6296Z" fill="#5263EB"/>
</svg>
