<?xml version="1.0" encoding="UTF-8" standalone="no"?><!DOCTYPE svg PUBLIC "-//W3C//DTD SVG 1.1//EN" "http://www.w3.org/Graphics/SVG/1.1/DTD/svg11.dtd"><svg width="100%" height="100%" viewBox="0 0 24 24" version="1.1" xmlns="http://www.w3.org/2000/svg" xmlns:xlink="http://www.w3.org/1999/xlink" xml:space="preserve" xmlns:serif="http://www.serif.com/" style="fill-rule:evenodd;clip-rule:evenodd;stroke-linecap:round;stroke-linejoin:round;"><path d="M21,11.5c0.003,1.32 -0.305,2.622 -0.9,3.8c-0.706,1.412 -1.79,2.599 -3.133,3.429c-1.342,0.83 -2.889,1.27 -4.467,1.271c-1.32,0.003 -2.622,-0.305 -3.8,-0.9l-5.7,1.9l1.9,-5.7c-0.595,-1.178 -0.903,-2.48 -0.9,-3.8c0.001,-1.578 0.441,-3.125 1.271,-4.467c0.83,-1.343 2.017,-2.427 3.429,-3.133c1.178,-0.595 2.48,-0.903 3.8,-0.9l0.5,0c2.084,0.115 4.053,0.995 5.529,2.471c1.476,1.476 2.356,3.445 2.471,5.529l-0,0.5Z" style="fill:none;fill-rule:nonzero;stroke:#e1e1e1;stroke-width:2px;"/></svg>