<?xml version="1.0" encoding="UTF-8" standalone="no"?><!DOCTYPE svg PUBLIC "-//W3C//DTD SVG 1.1//EN" "http://www.w3.org/Graphics/SVG/1.1/DTD/svg11.dtd"><svg width="100%" height="100%" viewBox="0 0 8 9" version="1.1" xmlns="http://www.w3.org/2000/svg" xmlns:xlink="http://www.w3.org/1999/xlink" xml:space="preserve" xmlns:serif="http://www.serif.com/" style="fill-rule:evenodd;clip-rule:evenodd;stroke-linejoin:round;stroke-miterlimit:2;"><g><path d="M5.525,4.595c-0.108,0 -0.195,-0.087 -0.195,-0.195c-0,-0.746 -0.291,-1.448 -0.819,-1.976c-0.076,-0.076 -0.076,-0.2 0,-0.276c0.077,-0.076 0.2,-0.076 0.276,-0c0.602,0.601 0.933,1.402 0.933,2.252c-0,0.108 -0.087,0.195 -0.195,0.195Z" style="fill-rule:nonzero;"/><path d="M0.195,4.595c-0.108,0 -0.195,-0.087 -0.195,-0.195c-0,-0.85 0.331,-1.651 0.933,-2.252c0.076,-0.076 0.2,-0.076 0.276,0c0.076,0.076 0.076,0.2 -0,0.276c-0.528,0.528 -0.819,1.229 -0.819,1.976c-0,0.108 -0.087,0.195 -0.195,0.195Z" style="fill-rule:nonzero;"/><path d="M2.86,8.04c-0.538,0 -0.975,-0.437 -0.975,-0.975c0,-0.107 0.087,-0.195 0.195,-0.195c0.108,0 0.195,0.088 0.195,0.195c0,0.323 0.262,0.585 0.585,0.585c0.323,0 0.585,-0.262 0.585,-0.585c0,-0.107 0.087,-0.195 0.195,-0.195c0.108,0 0.195,0.088 0.195,0.195c0,0.538 -0.437,0.975 -0.975,0.975Z" style="fill-rule:nonzero;"/><path d="M5.005,7.26l-4.29,0c-0.251,0 -0.455,-0.204 -0.455,-0.455c-0,-0.133 0.058,-0.259 0.159,-0.346c0.396,-0.334 0.621,-0.819 0.621,-1.334l-0,-0.725c-0,-1.003 0.816,-1.82 1.82,-1.82c1.004,0 1.82,0.817 1.82,1.82l-0,0.725c-0,0.515 0.225,1 0.618,1.333c0.104,0.088 0.162,0.214 0.162,0.347c-0,0.251 -0.204,0.455 -0.455,0.455Zm-2.145,-4.29c-0.789,0 -1.43,0.642 -1.43,1.43l-0,0.725c-0,0.63 -0.276,1.224 -0.757,1.63c-0.009,0.008 -0.023,0.024 -0.023,0.05c-0,0.036 0.03,0.065 0.065,0.065l4.29,0c0.035,0 0.065,-0.029 0.065,-0.065c-0,-0.026 -0.014,-0.042 -0.023,-0.049c-0.481,-0.407 -0.757,-1.001 -0.757,-1.631l-0,-0.725c-0,-0.788 -0.641,-1.43 -1.43,-1.43Z" style="fill-rule:nonzero;"/><path d="M2.86,2.97c-0.108,0 -0.195,-0.087 -0.195,-0.195l0,-0.78c0,-0.107 0.087,-0.195 0.195,-0.195c0.108,0 0.195,0.088 0.195,0.195l0,0.78c0,0.108 -0.087,0.195 -0.195,0.195Z" style="fill-rule:nonzero;"/><path d="M7.35,1.92c0,1.06 -0.859,1.92 -1.92,1.92c-1.06,-0 -1.92,-0.86 -1.92,-1.92c0,-1.06 0.86,-1.92 1.92,-1.92c1.061,0 1.92,0.86 1.92,1.92Z" style="fill:#fff;fill-rule:nonzero;"/><circle cx="5.43" cy="1.92" r="1.68" style="fill:#f45b5b;"/><path d="M5.567,2.76l-0.218,0l0,-1.445l-0.437,0.161l0,-0.197l0.621,-0.233l0.034,-0l0,1.714Z" style="fill:#fff;fill-rule:nonzero;"/><path d="M5.525,4.595c-0.108,0 -0.195,-0.087 -0.195,-0.195c-0,-0.746 -0.291,-1.448 -0.819,-1.976c-0.076,-0.076 -0.076,-0.2 0,-0.276c0.077,-0.076 0.2,-0.076 0.276,-0c0.602,0.601 0.933,1.402 0.933,2.252c-0,0.108 -0.087,0.195 -0.195,0.195Z" style="fill-rule:nonzero;"/><path d="M0.195,4.595c-0.108,0 -0.195,-0.087 -0.195,-0.195c-0,-0.85 0.331,-1.651 0.933,-2.252c0.076,-0.076 0.2,-0.076 0.276,0c0.076,0.076 0.076,0.2 -0,0.276c-0.528,0.528 -0.819,1.229 -0.819,1.976c-0,0.108 -0.087,0.195 -0.195,0.195Z" style="fill-rule:nonzero;"/><path d="M2.86,8.04c-0.538,0 -0.975,-0.437 -0.975,-0.975c0,-0.107 0.087,-0.195 0.195,-0.195c0.108,0 0.195,0.088 0.195,0.195c0,0.323 0.262,0.585 0.585,0.585c0.323,0 0.585,-0.262 0.585,-0.585c0,-0.107 0.087,-0.195 0.195,-0.195c0.108,0 0.195,0.088 0.195,0.195c0,0.538 -0.437,0.975 -0.975,0.975Z" style="fill-rule:nonzero;"/><path d="M5.005,7.26l-4.29,0c-0.251,0 -0.455,-0.204 -0.455,-0.455c-0,-0.133 0.058,-0.259 0.159,-0.346c0.396,-0.334 0.621,-0.819 0.621,-1.334l-0,-0.725c-0,-1.003 0.816,-1.82 1.82,-1.82c1.004,0 1.82,0.817 1.82,1.82l-0,0.725c-0,0.515 0.225,1 0.618,1.333c0.104,0.088 0.162,0.214 0.162,0.347c-0,0.251 -0.204,0.455 -0.455,0.455Zm-2.145,-4.29c-0.789,0 -1.43,0.642 -1.43,1.43l-0,0.725c-0,0.63 -0.276,1.224 -0.757,1.63c-0.009,0.008 -0.023,0.024 -0.023,0.05c-0,0.036 0.03,0.065 0.065,0.065l4.29,0c0.035,0 0.065,-0.029 0.065,-0.065c-0,-0.026 -0.014,-0.042 -0.023,-0.049c-0.481,-0.407 -0.757,-1.001 -0.757,-1.631l-0,-0.725c-0,-0.788 -0.641,-1.43 -1.43,-1.43Z" style="fill-rule:nonzero;"/><path d="M2.86,2.97c-0.108,0 -0.195,-0.087 -0.195,-0.195l0,-0.78c0,-0.107 0.087,-0.195 0.195,-0.195c0.108,0 0.195,0.088 0.195,0.195l0,0.78c0,0.108 -0.087,0.195 -0.195,0.195Z" style="fill-rule:nonzero;"/><path d="M7.35,1.92c0,1.06 -0.859,1.92 -1.92,1.92c-1.06,-0 -1.92,-0.86 -1.92,-1.92c0,-1.06 0.86,-1.92 1.92,-1.92c1.061,0 1.92,0.86 1.92,1.92Z" style="fill:#fff;fill-rule:nonzero;"/><circle cx="5.43" cy="1.92" r="1.68" style="fill:#f45b5b;"/><path d="M5.567,2.76l-0.218,0l0,-1.445l-0.437,0.161l0,-0.197l0.621,-0.233l0.034,-0l0,1.714Z" style="fill:#fff;fill-rule:nonzero;"/></g></svg>