<svg width="108" height="738" viewBox="0 0 108 738" fill="none" xmlns="http://www.w3.org/2000/svg">
<rect x="1.5" y="736.5" width="735" height="104.625" transform="rotate(-90 1.5 736.5)" stroke="black" stroke-width="3"/>
<path d="M56.7812 732.487C54.4879 732.487 52.6812 732.047 51.3612 731.167C50.0412 730.273 49.3812 728.84 49.3812 726.867C49.3812 724.893 50.0412 723.467 51.3612 722.587C52.6812 721.693 54.4879 721.247 56.7812 721.247C59.1012 721.247 60.9212 721.693 62.2412 722.587C63.5612 723.467 64.2212 724.893 64.2212 726.867C64.2212 728.84 63.5612 730.273 62.2412 731.167C60.9212 732.047 59.1012 732.487 56.7812 732.487ZM56.7812 724.607C55.4346 724.607 54.4012 724.753 53.6812 725.047C52.9479 725.34 52.5812 725.947 52.5812 726.867C52.5812 727.787 52.9479 728.393 53.6812 728.687C54.4012 728.98 55.4346 729.127 56.7812 729.127C57.6879 729.127 58.4412 729.073 59.0412 728.967C59.6279 728.86 60.1079 728.647 60.4812 728.327C60.8412 727.993 61.0212 727.507 61.0212 726.867C61.0212 726.227 60.8412 725.747 60.4812 725.427C60.1079 725.093 59.6279 724.873 59.0412 724.767C58.4412 724.66 57.6879 724.607 56.7812 724.607Z" fill="black"/>
<path d="M52.8612 677.499H49.6812V671.959H64.2812V675.519H52.8612V677.499Z" fill="black"/>
<path d="M86.63 720.96C86.63 720.32 86.765 719.75 87.035 719.25C87.295 718.75 87.69 718.355 88.22 718.065C88.75 717.775 89.395 717.63 90.155 717.63H95V718.98H90.35C89.53 718.98 88.905 719.185 88.475 719.595C88.035 719.995 87.815 720.54 87.815 721.23C87.815 721.94 88.045 722.505 88.505 722.925C88.955 723.345 89.61 723.555 90.47 723.555H95V724.905H90.35C89.53 724.905 88.905 725.11 88.475 725.52C88.035 725.92 87.815 726.465 87.815 727.155C87.815 727.865 88.045 728.43 88.505 728.85C88.955 729.27 89.61 729.48 90.47 729.48H95V730.845H86.78V729.48H87.965C87.535 729.21 87.205 728.85 86.975 728.4C86.745 727.94 86.63 727.435 86.63 726.885C86.63 726.195 86.785 725.585 87.095 725.055C87.405 724.525 87.86 724.13 88.46 723.87C87.88 723.64 87.43 723.26 87.11 722.73C86.79 722.2 86.63 721.61 86.63 720.96ZM86.63 705.506C86.63 704.866 86.765 704.296 87.035 703.796C87.295 703.296 87.69 702.901 88.22 702.611C88.75 702.321 89.395 702.176 90.155 702.176H95V703.526H90.35C89.53 703.526 88.905 703.731 88.475 704.141C88.035 704.541 87.815 705.086 87.815 705.776C87.815 706.486 88.045 707.051 88.505 707.471C88.955 707.891 89.61 708.101 90.47 708.101H95V709.451H90.35C89.53 709.451 88.905 709.656 88.475 710.066C88.035 710.466 87.815 711.011 87.815 711.701C87.815 712.411 88.045 712.976 88.505 713.396C88.955 713.816 89.61 714.026 90.47 714.026H95V715.391H86.78V714.026H87.965C87.535 713.756 87.205 713.396 86.975 712.946C86.745 712.486 86.63 711.981 86.63 711.431C86.63 710.741 86.785 710.131 87.095 709.601C87.405 709.071 87.86 708.676 88.46 708.416C87.88 708.186 87.43 707.806 87.11 707.276C86.79 706.746 86.63 706.156 86.63 705.506Z" fill="black"/>
<path d="M61.5412 623.447C61.1812 622.993 61.0146 622.787 61.0412 622.827C59.9612 621.52 59.0746 620.493 58.3812 619.747C57.6879 618.987 56.9612 618.347 56.2012 617.827C55.4412 617.307 54.7012 617.047 53.9812 617.047C53.4346 617.047 53.0079 617.173 52.7012 617.427C52.3946 617.68 52.2412 618.06 52.2412 618.567C52.2412 619.073 52.4346 619.473 52.8212 619.767C53.1946 620.047 53.7279 620.187 54.4212 620.187V623.487C53.2879 623.46 52.3412 623.22 51.5812 622.767C50.8212 622.3 50.2612 621.693 49.9012 620.947C49.5412 620.187 49.3612 619.347 49.3612 618.427C49.3612 616.84 49.7679 615.647 50.5812 614.847C51.3946 614.033 52.4546 613.627 53.7612 613.627C55.1879 613.627 56.5146 614.113 57.7412 615.087C58.9546 616.06 60.1412 617.3 61.3012 618.807V613.407H64.0812V623.447H61.5412Z" fill="black"/>
<path d="M53.8012 570.929C52.3746 570.876 51.2746 570.409 50.5012 569.529C49.7279 568.649 49.3412 567.456 49.3412 565.949C49.3412 564.949 49.5146 564.096 49.8612 563.389C50.2079 562.669 50.6812 562.129 51.2812 561.769C51.8812 561.396 52.5546 561.209 53.3012 561.209C54.1812 561.209 54.9012 561.429 55.4612 561.869C56.0079 562.309 56.3812 562.823 56.5812 563.409H56.6612C56.9146 562.649 57.3346 562.049 57.9212 561.609C58.5079 561.169 59.2612 560.949 60.1812 560.949C61.0079 560.949 61.7412 561.143 62.3812 561.529C63.0079 561.903 63.5012 562.456 63.8612 563.189C64.2212 563.909 64.4013 564.769 64.4013 565.769C64.4013 567.369 64.0079 568.649 63.2212 569.609C62.4346 570.556 61.2479 571.056 59.6612 571.109V567.789C60.2479 567.776 60.7146 567.609 61.0612 567.289C61.3946 566.969 61.5612 566.503 61.5612 565.889C61.5612 565.369 61.4146 564.969 61.1212 564.689C60.8146 564.396 60.4146 564.249 59.9212 564.249C59.2812 564.249 58.8212 564.456 58.5412 564.869C58.2479 565.269 58.1012 565.916 58.1012 566.809V567.449H55.3212V566.809C55.3212 566.129 55.2079 565.583 54.9812 565.169C54.7412 564.743 54.3212 564.529 53.7213 564.529C53.2412 564.529 52.8679 564.663 52.6012 564.929C52.3346 565.196 52.2012 565.563 52.2012 566.029C52.2012 566.536 52.3546 566.916 52.6612 567.169C52.9679 567.409 53.3479 567.549 53.8012 567.589V570.929Z" fill="black"/>
<path d="M61.6812 517.926H58.9212L49.8812 511.606V507.786H58.7212V506.146H61.6812V507.786H64.2812V511.206H61.6812V517.926ZM53.6412 510.966L58.7212 514.326V510.966H53.6412Z" fill="black"/>
<path d="M52.6612 453.914V460.154H55.4212C55.1279 459.887 54.8879 459.514 54.7012 459.034C54.5146 458.554 54.4212 458.034 54.4212 457.474C54.4212 456.474 54.6479 455.647 55.1012 454.994C55.5546 454.327 56.1412 453.84 56.8612 453.534C57.5812 453.227 58.3612 453.074 59.2012 453.074C60.7612 453.074 62.0012 453.514 62.9212 454.394C63.8279 455.274 64.2812 456.514 64.2812 458.114C64.2812 459.18 64.1012 460.107 63.7412 460.894C63.3679 461.68 62.8546 462.287 62.2012 462.714C61.5479 463.14 60.7946 463.374 59.9412 463.414V460.074C60.3546 459.994 60.7012 459.8 60.9812 459.494C61.2479 459.187 61.3812 458.767 61.3812 458.234C61.3812 457.607 61.1812 457.14 60.7812 456.834C60.3812 456.527 59.8479 456.374 59.1812 456.374C58.5279 456.374 58.0279 456.534 57.6812 456.854C57.3346 457.174 57.1612 457.64 57.1612 458.254C57.1612 458.707 57.2746 459.08 57.5012 459.374C57.7146 459.667 58.0012 459.86 58.3612 459.954V463.254H49.6612V453.914H52.6612Z" fill="black"/>
<path d="M53.6212 403.161C53.1279 403.268 52.7612 403.455 52.5213 403.721C52.2679 403.988 52.1412 404.368 52.1412 404.861C52.1412 405.621 52.4746 406.168 53.1412 406.501C53.7946 406.835 54.8346 407.008 56.2612 407.021C55.7946 406.728 55.4279 406.308 55.1612 405.761C54.8946 405.201 54.7612 404.588 54.7612 403.921C54.7612 402.615 55.1746 401.568 56.0012 400.781C56.8279 399.981 57.9812 399.581 59.4612 399.581C60.4346 399.581 61.2879 399.781 62.0212 400.181C62.7546 400.568 63.3279 401.141 63.7412 401.901C64.1546 402.648 64.3613 403.535 64.3613 404.561C64.3613 406.615 63.7212 408.041 62.4412 408.841C61.1479 409.641 59.2946 410.041 56.8812 410.041C54.3479 410.041 52.4679 409.621 51.2412 408.781C50.0012 407.928 49.3812 406.568 49.3812 404.701C49.3812 403.701 49.5812 402.861 49.9812 402.181C50.3679 401.488 50.8812 400.968 51.5212 400.621C52.1612 400.261 52.8612 400.048 53.6212 399.981V403.161ZM57.4612 404.741C57.4612 405.315 57.6346 405.795 57.9812 406.181C58.3146 406.555 58.7946 406.741 59.4212 406.741C60.0612 406.741 60.5612 406.568 60.9212 406.221C61.2812 405.861 61.4612 405.355 61.4612 404.701C61.4612 404.115 61.2879 403.655 60.9412 403.321C60.5812 402.975 60.0946 402.801 59.4812 402.801C58.8546 402.801 58.3612 402.968 58.0012 403.301C57.6412 403.635 57.4612 404.115 57.4612 404.741Z" fill="black"/>
<path d="M52.2412 347.249L64.2812 352.269V355.769L52.6212 350.689V356.909H49.7012V347.249H52.2412Z" fill="black"/>
<path d="M56.4412 299.587C55.7746 300.84 54.7279 301.467 53.3012 301.467C52.5812 301.467 51.9279 301.28 51.3412 300.907C50.7412 300.533 50.2679 299.967 49.9212 299.207C49.5612 298.447 49.3812 297.513 49.3812 296.407C49.3812 295.3 49.5612 294.373 49.9212 293.627C50.2679 292.867 50.7412 292.3 51.3412 291.927C51.9279 291.553 52.5812 291.367 53.3012 291.367C54.0212 291.367 54.6479 291.54 55.1812 291.887C55.7146 292.22 56.1346 292.673 56.4412 293.247C56.7879 292.527 57.2679 291.973 57.8812 291.587C58.4812 291.2 59.1879 291.007 60.0012 291.007C60.9479 291.007 61.7679 291.247 62.4612 291.727C63.1412 292.207 63.6612 292.86 64.0212 293.687C64.3813 294.5 64.5613 295.407 64.5613 296.407C64.5613 297.407 64.3813 298.32 64.0212 299.147C63.6612 299.96 63.1412 300.607 62.4612 301.087C61.7679 301.567 60.9479 301.807 60.0012 301.807C59.1746 301.807 58.4612 301.613 57.8612 301.227C57.2479 300.84 56.7746 300.293 56.4412 299.587ZM53.8212 294.687C53.2746 294.687 52.8546 294.847 52.5612 295.167C52.2546 295.473 52.1012 295.887 52.1012 296.407C52.1012 296.927 52.2546 297.347 52.5612 297.667C52.8679 297.973 53.2946 298.127 53.8412 298.127C54.3612 298.127 54.7746 297.967 55.0812 297.647C55.3746 297.327 55.5212 296.913 55.5212 296.407C55.5212 295.9 55.3679 295.487 55.0612 295.167C54.7546 294.847 54.3412 294.687 53.8212 294.687ZM57.9212 296.407C57.9212 297.033 58.0946 297.54 58.4412 297.927C58.7746 298.313 59.2412 298.507 59.8412 298.507C60.4012 298.507 60.8612 298.32 61.2212 297.947C61.5812 297.56 61.7612 297.047 61.7612 296.407C61.7612 295.767 61.5812 295.267 61.2212 294.907C60.8612 294.533 60.4012 294.347 59.8412 294.347C59.2546 294.347 58.7879 294.54 58.4412 294.927C58.0946 295.3 57.9212 295.793 57.9212 296.407Z" fill="black"/>
<path d="M60.0012 245.264C61.0546 245.064 61.5812 244.45 61.5812 243.424C61.5812 242.717 61.2679 242.217 60.6412 241.924C60.0146 241.63 58.9946 241.484 57.5812 241.484C57.9946 241.777 58.3146 242.177 58.5412 242.684C58.7679 243.19 58.8812 243.757 58.8812 244.384C58.8812 245.237 58.7079 245.997 58.3612 246.664C58.0012 247.33 57.4746 247.857 56.7812 248.244C56.0746 248.617 55.2212 248.804 54.2212 248.804C53.2346 248.804 52.3746 248.604 51.6412 248.204C50.9079 247.79 50.3412 247.21 49.9412 246.464C49.5412 245.704 49.3412 244.81 49.3412 243.784C49.3412 241.81 49.9546 240.43 51.1812 239.644C52.4079 238.857 54.2146 238.464 56.6012 238.464C58.3346 238.464 59.7679 238.624 60.9012 238.944C62.0212 239.25 62.8746 239.777 63.4612 240.524C64.0479 241.257 64.3413 242.264 64.3413 243.544C64.3413 244.557 64.1412 245.424 63.7412 246.144C63.3412 246.85 62.8146 247.397 62.1612 247.784C61.5079 248.157 60.7879 248.37 60.0012 248.424V245.264ZM56.1812 243.604C56.1812 243.044 56.0146 242.597 55.6812 242.264C55.3346 241.93 54.8679 241.764 54.2812 241.764C53.6412 241.764 53.1479 241.937 52.8012 242.284C52.4546 242.63 52.2812 243.097 52.2812 243.684C52.2812 244.27 52.4612 244.737 52.8212 245.084C53.1679 245.417 53.6479 245.584 54.2612 245.584C54.8346 245.584 55.3012 245.417 55.6612 245.084C56.0079 244.737 56.1812 244.244 56.1812 243.604Z" fill="black"/>
<path d="M52.8612 198.565H49.6812V193.025H64.2812V196.585H52.8612V198.565ZM86.7812 198.205C84.4879 198.205 82.6812 197.765 81.3612 196.885C80.0412 195.992 79.3812 194.559 79.3812 192.585C79.3812 190.612 80.0412 189.185 81.3612 188.305C82.6812 187.412 84.4879 186.965 86.7812 186.965C89.1012 186.965 90.9212 187.412 92.2412 188.305C93.5612 189.185 94.2212 190.612 94.2212 192.585C94.2212 194.559 93.5612 195.992 92.2412 196.885C90.9212 197.765 89.1012 198.205 86.7812 198.205ZM86.7812 190.325C85.4346 190.325 84.4012 190.472 83.6812 190.765C82.9479 191.059 82.5812 191.665 82.5812 192.585C82.5812 193.505 82.9479 194.112 83.6812 194.405C84.4012 194.699 85.4346 194.845 86.7812 194.845C87.6879 194.845 88.4412 194.792 89.0412 194.685C89.6279 194.579 90.1079 194.365 90.4812 194.045C90.8412 193.712 91.0212 193.225 91.0212 192.585C91.0212 191.945 90.8412 191.465 90.4812 191.145C90.1079 190.812 89.6279 190.592 89.0412 190.485C88.4412 190.379 87.6879 190.325 86.7812 190.325Z" fill="black"/>
<path d="M52.8612 142.448H49.6812V136.908H64.2812V140.468H52.8612V142.448ZM82.8612 142.448H79.6812V136.908H94.2812V140.468H82.8612V142.448Z" fill="black"/>
<path d="M52.8612 90.1709H49.6812V84.6309H64.2812V88.1909H52.8612V90.1709ZM91.5412 89.9309C91.1812 89.4776 91.0146 89.2709 91.0412 89.3109C89.9612 88.0043 89.0746 86.9776 88.3812 86.2309C87.6879 85.4709 86.9612 84.8309 86.2012 84.3109C85.4412 83.7909 84.7012 83.5309 83.9812 83.5309C83.4346 83.5309 83.0079 83.6576 82.7012 83.9109C82.3946 84.1643 82.2412 84.5443 82.2412 85.0509C82.2412 85.5576 82.4346 85.9576 82.8212 86.2509C83.1946 86.5309 83.7279 86.6709 84.4212 86.6709V89.9709C83.2879 89.9443 82.3412 89.7043 81.5812 89.2509C80.8212 88.7843 80.2612 88.1776 79.9012 87.4309C79.5412 86.6709 79.3612 85.8309 79.3612 84.9109C79.3612 83.3243 79.7679 82.1309 80.5812 81.3309C81.3946 80.5176 82.4546 80.1109 83.7612 80.1109C85.1879 80.1109 86.5146 80.5976 87.7412 81.5709C88.9546 82.5443 90.1412 83.7843 91.3012 85.2909V79.8909H94.0812V89.9309H91.5412Z" fill="black"/>
<path d="M52.8612 36.3584H49.6812V30.8184H64.2812V34.3784H52.8612V36.3584ZM83.8012 35.8784C82.3746 35.8251 81.2746 35.3584 80.5012 34.4784C79.7279 33.5984 79.3412 32.4051 79.3412 30.8984C79.3412 29.8984 79.5146 29.0451 79.8612 28.3384C80.2079 27.6184 80.6812 27.0784 81.2812 26.7184C81.8812 26.3451 82.5546 26.1584 83.3012 26.1584C84.1812 26.1584 84.9012 26.3784 85.4612 26.8184C86.0079 27.2584 86.3812 27.7718 86.5812 28.3584H86.6612C86.9146 27.5984 87.3346 26.9984 87.9212 26.5584C88.5079 26.1184 89.2612 25.8984 90.1812 25.8984C91.0079 25.8984 91.7412 26.0918 92.3812 26.4784C93.0079 26.8518 93.5012 27.4051 93.8612 28.1384C94.2212 28.8584 94.4013 29.7184 94.4013 30.7184C94.4013 32.3184 94.0079 33.5984 93.2212 34.5584C92.4346 35.5051 91.2479 36.0051 89.6612 36.0584V32.7384C90.2479 32.7251 90.7146 32.5584 91.0612 32.2384C91.3946 31.9184 91.5612 31.4518 91.5612 30.8384C91.5612 30.3184 91.4146 29.9184 91.1212 29.6384C90.8146 29.3451 90.4146 29.1984 89.9212 29.1984C89.2812 29.1984 88.8212 29.4051 88.5412 29.8184C88.2479 30.2184 88.1012 30.8651 88.1012 31.7584V32.3984H85.3212V31.7584C85.3212 31.0784 85.2079 30.5318 84.9812 30.1184C84.7412 29.6918 84.3212 29.4784 83.7213 29.4784C83.2412 29.4784 82.8679 29.6118 82.6012 29.8784C82.3346 30.1451 82.2012 30.5118 82.2012 30.9784C82.2012 31.4851 82.3546 31.8651 82.6612 32.1184C82.9679 32.3584 83.3479 32.4984 83.8012 32.5384V35.8784Z" fill="black"/>
<path d="M2.30469 728.777H43.4328" stroke="black" stroke-width="2"/>
<path d="M2.30469 674.965H43.4328" stroke="black" stroke-width="2"/>
<path d="M2.30469 701.871H29.9797" stroke="black" stroke-width="2"/>
<path d="M2.30469 723.395H17.6797" stroke="black" stroke-width="2"/>
<path d="M2.30469 718.016H17.6797" stroke="black" stroke-width="2"/>
<path d="M2.30469 712.633H17.6797" stroke="black" stroke-width="2"/>
<path d="M2.30469 707.254H17.6797" stroke="black" stroke-width="2"/>
<path d="M2.30469 696.488H17.6797" stroke="black" stroke-width="2"/>
<path d="M2.30469 691.109H17.6797" stroke="black" stroke-width="2"/>
<path d="M2.30469 685.727H17.6797" stroke="black" stroke-width="2"/>
<path d="M2.30469 680.348H17.6797" stroke="black" stroke-width="2"/>
<path d="M2.30469 674.965H43.4328" stroke="black" stroke-width="2"/>
<path d="M2.30469 621.152H43.4328" stroke="black" stroke-width="2"/>
<path d="M2.30469 648.059H29.9797" stroke="black" stroke-width="2"/>
<path d="M2.30469 669.582H17.6797" stroke="black" stroke-width="2"/>
<path d="M2.30469 664.203H17.6797" stroke="black" stroke-width="2"/>
<path d="M2.30469 658.82H17.6797" stroke="black" stroke-width="2"/>
<path d="M2.30469 653.441H17.6797" stroke="black" stroke-width="2"/>
<path d="M2.30469 642.676H17.6797" stroke="black" stroke-width="2"/>
<path d="M2.30469 637.297H17.6797" stroke="black" stroke-width="2"/>
<path d="M2.30469 631.914H17.6797" stroke="black" stroke-width="2"/>
<path d="M2.30469 626.535H17.6797" stroke="black" stroke-width="2"/>
<path d="M2.30469 621.152H43.4328" stroke="black" stroke-width="2"/>
<path d="M2.30469 567.34H43.4328" stroke="black" stroke-width="2"/>
<path d="M2.30469 594.246H29.9797" stroke="black" stroke-width="2"/>
<path d="M2.30469 615.77H17.6797" stroke="black" stroke-width="2"/>
<path d="M2.30469 610.391H17.6797" stroke="black" stroke-width="2"/>
<path d="M2.30469 605.008H17.6797" stroke="black" stroke-width="2"/>
<path d="M2.30469 599.629H17.6797" stroke="black" stroke-width="2"/>
<path d="M2.30469 588.863H17.6797" stroke="black" stroke-width="2"/>
<path d="M2.30469 583.484H17.6797" stroke="black" stroke-width="2"/>
<path d="M2.30469 578.102H17.6797" stroke="black" stroke-width="2"/>
<path d="M2.30469 572.723H17.6797" stroke="black" stroke-width="2"/>
<path d="M2.30469 567.34H43.4328" stroke="black" stroke-width="2"/>
<path d="M2.30469 513.527H43.4328" stroke="black" stroke-width="2"/>
<path d="M2.30469 540.434H29.9797" stroke="black" stroke-width="2"/>
<path d="M2.30469 561.957H17.6797" stroke="black" stroke-width="2"/>
<path d="M2.30469 556.578H17.6797" stroke="black" stroke-width="2"/>
<path d="M2.30469 551.195H17.6797" stroke="black" stroke-width="2"/>
<path d="M2.30469 545.816H17.6797" stroke="black" stroke-width="2"/>
<path d="M2.30469 535.051H17.6797" stroke="black" stroke-width="2"/>
<path d="M2.30469 529.672H17.6797" stroke="black" stroke-width="2"/>
<path d="M2.30469 524.289H17.6797" stroke="black" stroke-width="2"/>
<path d="M2.30469 518.91H17.6797" stroke="black" stroke-width="2"/>
<path d="M2.30469 513.527H43.4328" stroke="black" stroke-width="2"/>
<path d="M2.30469 459.715H43.4328" stroke="black" stroke-width="2"/>
<path d="M2.30469 486.621H29.9797" stroke="black" stroke-width="2"/>
<path d="M2.30469 508.145H17.6797" stroke="black" stroke-width="2"/>
<path d="M2.30469 502.766H17.6797" stroke="black" stroke-width="2"/>
<path d="M2.30469 497.383H17.6797" stroke="black" stroke-width="2"/>
<path d="M2.30469 492.004H17.6797" stroke="black" stroke-width="2"/>
<path d="M2.30469 481.238H17.6797" stroke="black" stroke-width="2"/>
<path d="M2.30469 475.859H17.6797" stroke="black" stroke-width="2"/>
<path d="M2.30469 470.477H17.6797" stroke="black" stroke-width="2"/>
<path d="M2.30469 465.098H17.6797" stroke="black" stroke-width="2"/>
<path d="M2.30469 459.715H43.4328" stroke="black" stroke-width="2"/>
<path d="M2.30469 405.902H43.4328" stroke="black" stroke-width="2"/>
<path d="M2.30469 432.809H29.9797" stroke="black" stroke-width="2"/>
<path d="M2.30469 454.332H17.6797" stroke="black" stroke-width="2"/>
<path d="M2.30469 448.953H17.6797" stroke="black" stroke-width="2"/>
<path d="M2.30469 443.57H17.6797" stroke="black" stroke-width="2"/>
<path d="M2.30469 438.191H17.6797" stroke="black" stroke-width="2"/>
<path d="M2.30469 427.426H17.6797" stroke="black" stroke-width="2"/>
<path d="M2.30469 422.047H17.6797" stroke="black" stroke-width="2"/>
<path d="M2.30469 416.664H17.6797" stroke="black" stroke-width="2"/>
<path d="M2.30469 411.285H17.6797" stroke="black" stroke-width="2"/>
<path d="M2.30469 405.902H43.4328" stroke="black" stroke-width="2"/>
<path d="M2.30469 352.09H43.4328" stroke="black" stroke-width="2"/>
<path d="M2.30469 378.996H29.9797" stroke="black" stroke-width="2"/>
<path d="M2.30469 400.52H17.6797" stroke="black" stroke-width="2"/>
<path d="M2.30469 395.141H17.6797" stroke="black" stroke-width="2"/>
<path d="M2.30469 389.758H17.6797" stroke="black" stroke-width="2"/>
<path d="M2.30469 384.379H17.6797" stroke="black" stroke-width="2"/>
<path d="M2.30469 373.613H17.6797" stroke="black" stroke-width="2"/>
<path d="M2.30469 368.234H17.6797" stroke="black" stroke-width="2"/>
<path d="M2.30469 362.852H17.6797" stroke="black" stroke-width="2"/>
<path d="M2.30469 357.473H17.6797" stroke="black" stroke-width="2"/>
<path d="M2.30469 352.09H43.4328" stroke="black" stroke-width="2"/>
<path d="M2.30469 298.277H43.4328" stroke="black" stroke-width="2"/>
<path d="M2.30469 325.184H29.9797" stroke="black" stroke-width="2"/>
<path d="M2.30469 346.707H17.6797" stroke="black" stroke-width="2"/>
<path d="M2.30469 341.328H17.6797" stroke="black" stroke-width="2"/>
<path d="M2.30469 335.945H17.6797" stroke="black" stroke-width="2"/>
<path d="M2.30469 330.566H17.6797" stroke="black" stroke-width="2"/>
<path d="M2.30469 319.801H17.6797" stroke="black" stroke-width="2"/>
<path d="M2.30469 314.422H17.6797" stroke="black" stroke-width="2"/>
<path d="M2.30469 309.039H17.6797" stroke="black" stroke-width="2"/>
<path d="M2.30469 303.66H17.6797" stroke="black" stroke-width="2"/>
<path d="M2.30469 298.277H43.4328" stroke="black" stroke-width="2"/>
<path d="M2.30469 244.465H43.4328" stroke="black" stroke-width="2"/>
<path d="M2.30469 271.371H29.9797" stroke="black" stroke-width="2"/>
<path d="M2.30469 292.895H17.6797" stroke="black" stroke-width="2"/>
<path d="M2.30469 287.516H17.6797" stroke="black" stroke-width="2"/>
<path d="M2.30469 282.133H17.6797" stroke="black" stroke-width="2"/>
<path d="M2.30469 276.754H17.6797" stroke="black" stroke-width="2"/>
<path d="M2.30469 265.988H17.6797" stroke="black" stroke-width="2"/>
<path d="M2.30469 260.609H17.6797" stroke="black" stroke-width="2"/>
<path d="M2.30469 255.227H17.6797" stroke="black" stroke-width="2"/>
<path d="M2.30469 249.848H17.6797" stroke="black" stroke-width="2"/>
<path d="M2.30469 244.465H43.4328" stroke="black" stroke-width="2"/>
<path d="M2.30469 190.652H43.4328" stroke="black" stroke-width="2"/>
<path d="M2.30469 217.559H29.9797" stroke="black" stroke-width="2"/>
<path d="M2.30469 239.082H17.6797" stroke="black" stroke-width="2"/>
<path d="M2.30469 233.703H17.6797" stroke="black" stroke-width="2"/>
<path d="M2.30469 228.32H17.6797" stroke="black" stroke-width="2"/>
<path d="M2.30469 222.941H17.6797" stroke="black" stroke-width="2"/>
<path d="M2.30469 212.176H17.6797" stroke="black" stroke-width="2"/>
<path d="M2.30469 206.797H17.6797" stroke="black" stroke-width="2"/>
<path d="M2.30469 201.414H17.6797" stroke="black" stroke-width="2"/>
<path d="M2.30469 196.035H17.6797" stroke="black" stroke-width="2"/>
<path d="M2.30469 190.652H43.4328" stroke="black" stroke-width="2"/>
<path d="M2.30469 136.84H43.4328" stroke="black" stroke-width="2"/>
<path d="M2.30469 163.746H29.9797" stroke="black" stroke-width="2"/>
<path d="M2.30469 185.27H17.6797" stroke="black" stroke-width="2"/>
<path d="M2.30469 179.891H17.6797" stroke="black" stroke-width="2"/>
<path d="M2.30469 174.508H17.6797" stroke="black" stroke-width="2"/>
<path d="M2.30469 169.129H17.6797" stroke="black" stroke-width="2"/>
<path d="M2.30469 158.363H17.6797" stroke="black" stroke-width="2"/>
<path d="M2.30469 152.984H17.6797" stroke="black" stroke-width="2"/>
<path d="M2.30469 147.602H17.6797" stroke="black" stroke-width="2"/>
<path d="M2.30469 142.223H17.6797" stroke="black" stroke-width="2"/>
<path d="M2.30469 136.84H43.4328" stroke="black" stroke-width="2"/>
<path d="M2.30469 83.0273H43.4328" stroke="black" stroke-width="2"/>
<path d="M2.30469 109.934H29.9797" stroke="black" stroke-width="2"/>
<path d="M2.30469 131.457H17.6797" stroke="black" stroke-width="2"/>
<path d="M2.30469 126.078H17.6797" stroke="black" stroke-width="2"/>
<path d="M2.30469 120.695H17.6797" stroke="black" stroke-width="2"/>
<path d="M2.30469 115.316H17.6797" stroke="black" stroke-width="2"/>
<path d="M2.30469 104.551H17.6797" stroke="black" stroke-width="2"/>
<path d="M2.30469 99.1719H17.6797" stroke="black" stroke-width="2"/>
<path d="M2.30469 93.7891H17.6797" stroke="black" stroke-width="2"/>
<path d="M2.30469 88.4102H17.6797" stroke="black" stroke-width="2"/>
<path d="M2.30469 83.0234H43.4328" stroke="black" stroke-width="2"/>
<path d="M2.30469 29.2109L43.4328 29.2109" stroke="black" stroke-width="2"/>
<path d="M2.30469 56.1172H29.9797" stroke="black" stroke-width="2"/>
<path d="M2.30469 77.6445H17.6797" stroke="black" stroke-width="2"/>
<path d="M2.30469 72.2617H17.6797" stroke="black" stroke-width="2"/>
<path d="M2.30469 66.8828H17.6797" stroke="black" stroke-width="2"/>
<path d="M2.30469 61.5H17.6797" stroke="black" stroke-width="2"/>
<path d="M2.30469 50.7383H17.6797" stroke="black" stroke-width="2"/>
<path d="M2.30469 45.3555H17.6797" stroke="black" stroke-width="2"/>
<path d="M2.30469 39.9766H17.6797" stroke="black" stroke-width="2"/>
<path d="M2.30469 34.5938H17.6797" stroke="black" stroke-width="2"/>
<path d="M2.30469 23.832H17.6797" stroke="black" stroke-width="2"/>
<path d="M2.30469 18.4492H17.6797" stroke="black" stroke-width="2"/>
<path d="M2.30469 13.0703H17.6797" stroke="black" stroke-width="2"/>
<path d="M2.30469 7.6875L17.6797 7.6875" stroke="black" stroke-width="2"/>
</svg>
