<?xml version="1.0" encoding="UTF-8" standalone="no"?>
<!DOCTYPE svg PUBLIC "-//W3C//DTD SVG 1.1//EN" "http://www.w3.org/Graphics/SVG/1.1/DTD/svg11.dtd">
<svg width="100%" height="100%" viewBox="0 0 450 3075" version="1.1" xmlns="http://www.w3.org/2000/svg" xmlns:xlink="http://www.w3.org/1999/xlink" xml:space="preserve" xmlns:serif="http://www.serif.com/" style="fill-rule:evenodd;clip-rule:evenodd;">
    <g transform="matrix(1,0,0,1,-3565.3,2041.57)">
        <g>
            <g transform="matrix(0.794289,0,0,2.94853,759.147,4107.99)">
                <rect x="3532.91" y="-2085.64" width="566.544" height="1042.89" style="fill:white;"/>
            </g>
            <g id="ruler.svg" transform="matrix(4.16667,0,0,4.16667,3790.3,-504.067)">
                <g transform="matrix(1,0,0,1,-54,-369)">
                    <clipPath id="_clip1">
                        <rect x="0" y="0" width="108" height="738"/>
                    </clipPath>
                    <g clip-path="url(#_clip1)">
                        <g transform="matrix(-3.82857e-16,-1,1,-3.82857e-16,-735,738)">
                            <rect x="1.5" y="736.5" width="735" height="104.625" style="fill:none;stroke:black;stroke-width:3px;"/>
                        </g>
                        <path d="M56.781,732.487C54.488,732.487 52.681,732.047 51.361,731.167C50.041,730.273 49.381,728.84 49.381,726.867C49.381,724.893 50.041,723.467 51.361,722.587C52.681,721.693 54.488,721.247 56.781,721.247C59.101,721.247 60.921,721.693 62.241,722.587C63.561,723.467 64.221,724.893 64.221,726.867C64.221,728.84 63.561,730.273 62.241,731.167C60.921,732.047 59.101,732.487 56.781,732.487ZM56.781,724.607C55.435,724.607 54.401,724.753 53.681,725.047C52.948,725.34 52.581,725.947 52.581,726.867C52.581,727.787 52.948,728.393 53.681,728.687C54.401,728.98 55.435,729.127 56.781,729.127C57.688,729.127 58.441,729.073 59.041,728.967C59.628,728.86 60.108,728.647 60.481,728.327C60.841,727.993 61.021,727.507 61.021,726.867C61.021,726.227 60.841,725.747 60.481,725.427C60.108,725.093 59.628,724.873 59.041,724.767C58.441,724.66 57.688,724.607 56.781,724.607Z" style="fill-rule:nonzero;"/>
                        <path d="M52.861,677.499L49.681,677.499L49.681,671.959L64.281,671.959L64.281,675.519L52.861,675.519L52.861,677.499Z" style="fill-rule:nonzero;"/>
                        <path d="M86.63,720.96C86.63,720.32 86.765,719.75 87.035,719.25C87.295,718.75 87.69,718.355 88.22,718.065C88.75,717.775 89.395,717.63 90.155,717.63L95,717.63L95,718.98L90.35,718.98C89.53,718.98 88.905,719.185 88.475,719.595C88.035,719.995 87.815,720.54 87.815,721.23C87.815,721.94 88.045,722.505 88.505,722.925C88.955,723.345 89.61,723.555 90.47,723.555L95,723.555L95,724.905L90.35,724.905C89.53,724.905 88.905,725.11 88.475,725.52C88.035,725.92 87.815,726.465 87.815,727.155C87.815,727.865 88.045,728.43 88.505,728.85C88.955,729.27 89.61,729.48 90.47,729.48L95,729.48L95,730.845L86.78,730.845L86.78,729.48L87.965,729.48C87.535,729.21 87.205,728.85 86.975,728.4C86.745,727.94 86.63,727.435 86.63,726.885C86.63,726.195 86.785,725.585 87.095,725.055C87.405,724.525 87.86,724.13 88.46,723.87C87.88,723.64 87.43,723.26 87.11,722.73C86.79,722.2 86.63,721.61 86.63,720.96ZM86.63,705.506C86.63,704.866 86.765,704.296 87.035,703.796C87.295,703.296 87.69,702.901 88.22,702.611C88.75,702.321 89.395,702.176 90.155,702.176L95,702.176L95,703.526L90.35,703.526C89.53,703.526 88.905,703.731 88.475,704.141C88.035,704.541 87.815,705.086 87.815,705.776C87.815,706.486 88.045,707.051 88.505,707.471C88.955,707.891 89.61,708.101 90.47,708.101L95,708.101L95,709.451L90.35,709.451C89.53,709.451 88.905,709.656 88.475,710.066C88.035,710.466 87.815,711.011 87.815,711.701C87.815,712.411 88.045,712.976 88.505,713.396C88.955,713.816 89.61,714.026 90.47,714.026L95,714.026L95,715.391L86.78,715.391L86.78,714.026L87.965,714.026C87.535,713.756 87.205,713.396 86.975,712.946C86.745,712.486 86.63,711.981 86.63,711.431C86.63,710.741 86.785,710.131 87.095,709.601C87.405,709.071 87.86,708.676 88.46,708.416C87.88,708.186 87.43,707.806 87.11,707.276C86.79,706.746 86.63,706.156 86.63,705.506Z" style="fill-rule:nonzero;"/>
                        <path d="M61.541,623.447C61.181,622.993 61.015,622.787 61.041,622.827C59.961,621.52 59.075,620.493 58.381,619.747C57.688,618.987 56.961,618.347 56.201,617.827C55.441,617.307 54.701,617.047 53.981,617.047C53.435,617.047 53.008,617.173 52.701,617.427C52.395,617.68 52.241,618.06 52.241,618.567C52.241,619.073 52.435,619.473 52.821,619.767C53.195,620.047 53.728,620.187 54.421,620.187L54.421,623.487C53.288,623.46 52.341,623.22 51.581,622.767C50.821,622.3 50.261,621.693 49.901,620.947C49.541,620.187 49.361,619.347 49.361,618.427C49.361,616.84 49.768,615.647 50.581,614.847C51.395,614.033 52.455,613.627 53.761,613.627C55.188,613.627 56.515,614.113 57.741,615.087C58.955,616.06 60.141,617.3 61.301,618.807L61.301,613.407L64.081,613.407L64.081,623.447L61.541,623.447Z" style="fill-rule:nonzero;"/>
                        <path d="M53.801,570.929C52.375,570.876 51.275,570.409 50.501,569.529C49.728,568.649 49.341,567.456 49.341,565.949C49.341,564.949 49.515,564.096 49.861,563.389C50.208,562.669 50.681,562.129 51.281,561.769C51.881,561.396 52.555,561.209 53.301,561.209C54.181,561.209 54.901,561.429 55.461,561.869C56.008,562.309 56.381,562.823 56.581,563.409L56.661,563.409C56.915,562.649 57.335,562.049 57.921,561.609C58.508,561.169 59.261,560.949 60.181,560.949C61.008,560.949 61.741,561.143 62.381,561.529C63.008,561.903 63.501,562.456 63.861,563.189C64.221,563.909 64.401,564.769 64.401,565.769C64.401,567.369 64.008,568.649 63.221,569.609C62.435,570.556 61.248,571.056 59.661,571.109L59.661,567.789C60.248,567.776 60.715,567.609 61.061,567.289C61.395,566.969 61.561,566.503 61.561,565.889C61.561,565.369 61.415,564.969 61.121,564.689C60.815,564.396 60.415,564.249 59.921,564.249C59.281,564.249 58.821,564.456 58.541,564.869C58.248,565.269 58.101,565.916 58.101,566.809L58.101,567.449L55.321,567.449L55.321,566.809C55.321,566.129 55.208,565.583 54.981,565.169C54.741,564.743 54.321,564.529 53.721,564.529C53.241,564.529 52.868,564.663 52.601,564.929C52.335,565.196 52.201,565.563 52.201,566.029C52.201,566.536 52.355,566.916 52.661,567.169C52.968,567.409 53.348,567.549 53.801,567.589L53.801,570.929Z" style="fill-rule:nonzero;"/>
                        <path d="M61.681,517.926L58.921,517.926L49.881,511.606L49.881,507.786L58.721,507.786L58.721,506.146L61.681,506.146L61.681,507.786L64.281,507.786L64.281,511.206L61.681,511.206L61.681,517.926ZM53.641,510.966L58.721,514.326L58.721,510.966L53.641,510.966Z" style="fill-rule:nonzero;"/>
                        <path d="M52.661,453.914L52.661,460.154L55.421,460.154C55.128,459.887 54.888,459.514 54.701,459.034C54.515,458.554 54.421,458.034 54.421,457.474C54.421,456.474 54.648,455.647 55.101,454.994C55.555,454.327 56.141,453.84 56.861,453.534C57.581,453.227 58.361,453.074 59.201,453.074C60.761,453.074 62.001,453.514 62.921,454.394C63.828,455.274 64.281,456.514 64.281,458.114C64.281,459.18 64.101,460.107 63.741,460.894C63.368,461.68 62.855,462.287 62.201,462.714C61.548,463.14 60.795,463.374 59.941,463.414L59.941,460.074C60.355,459.994 60.701,459.8 60.981,459.494C61.248,459.187 61.381,458.767 61.381,458.234C61.381,457.607 61.181,457.14 60.781,456.834C60.381,456.527 59.848,456.374 59.181,456.374C58.528,456.374 58.028,456.534 57.681,456.854C57.335,457.174 57.161,457.64 57.161,458.254C57.161,458.707 57.275,459.08 57.501,459.374C57.715,459.667 58.001,459.86 58.361,459.954L58.361,463.254L49.661,463.254L49.661,453.914L52.661,453.914Z" style="fill-rule:nonzero;"/>
                        <path d="M53.621,403.161C53.128,403.268 52.761,403.455 52.521,403.721C52.268,403.988 52.141,404.368 52.141,404.861C52.141,405.621 52.475,406.168 53.141,406.501C53.795,406.835 54.835,407.008 56.261,407.021C55.795,406.728 55.428,406.308 55.161,405.761C54.895,405.201 54.761,404.588 54.761,403.921C54.761,402.615 55.175,401.568 56.001,400.781C56.828,399.981 57.981,399.581 59.461,399.581C60.435,399.581 61.288,399.781 62.021,400.181C62.755,400.568 63.328,401.141 63.741,401.901C64.155,402.648 64.361,403.535 64.361,404.561C64.361,406.615 63.721,408.041 62.441,408.841C61.148,409.641 59.295,410.041 56.881,410.041C54.348,410.041 52.468,409.621 51.241,408.781C50.001,407.928 49.381,406.568 49.381,404.701C49.381,403.701 49.581,402.861 49.981,402.181C50.368,401.488 50.881,400.968 51.521,400.621C52.161,400.261 52.861,400.048 53.621,399.981L53.621,403.161ZM57.461,404.741C57.461,405.315 57.635,405.795 57.981,406.181C58.315,406.555 58.795,406.741 59.421,406.741C60.061,406.741 60.561,406.568 60.921,406.221C61.281,405.861 61.461,405.355 61.461,404.701C61.461,404.115 61.288,403.655 60.941,403.321C60.581,402.975 60.095,402.801 59.481,402.801C58.855,402.801 58.361,402.968 58.001,403.301C57.641,403.635 57.461,404.115 57.461,404.741Z" style="fill-rule:nonzero;"/>
                        <path d="M52.241,347.249L64.281,352.269L64.281,355.769L52.621,350.689L52.621,356.909L49.701,356.909L49.701,347.249L52.241,347.249Z" style="fill-rule:nonzero;"/>
                        <path d="M56.441,299.587C55.775,300.84 54.728,301.467 53.301,301.467C52.581,301.467 51.928,301.28 51.341,300.907C50.741,300.533 50.268,299.967 49.921,299.207C49.561,298.447 49.381,297.513 49.381,296.407C49.381,295.3 49.561,294.373 49.921,293.627C50.268,292.867 50.741,292.3 51.341,291.927C51.928,291.553 52.581,291.367 53.301,291.367C54.021,291.367 54.648,291.54 55.181,291.887C55.715,292.22 56.135,292.673 56.441,293.247C56.788,292.527 57.268,291.973 57.881,291.587C58.481,291.2 59.188,291.007 60.001,291.007C60.948,291.007 61.768,291.247 62.461,291.727C63.141,292.207 63.661,292.86 64.021,293.687C64.381,294.5 64.561,295.407 64.561,296.407C64.561,297.407 64.381,298.32 64.021,299.147C63.661,299.96 63.141,300.607 62.461,301.087C61.768,301.567 60.948,301.807 60.001,301.807C59.175,301.807 58.461,301.613 57.861,301.227C57.248,300.84 56.775,300.293 56.441,299.587ZM53.821,294.687C53.275,294.687 52.855,294.847 52.561,295.167C52.255,295.473 52.101,295.887 52.101,296.407C52.101,296.927 52.255,297.347 52.561,297.667C52.868,297.973 53.295,298.127 53.841,298.127C54.361,298.127 54.775,297.967 55.081,297.647C55.375,297.327 55.521,296.913 55.521,296.407C55.521,295.9 55.368,295.487 55.061,295.167C54.755,294.847 54.341,294.687 53.821,294.687ZM57.921,296.407C57.921,297.033 58.095,297.54 58.441,297.927C58.775,298.313 59.241,298.507 59.841,298.507C60.401,298.507 60.861,298.32 61.221,297.947C61.581,297.56 61.761,297.047 61.761,296.407C61.761,295.767 61.581,295.267 61.221,294.907C60.861,294.533 60.401,294.347 59.841,294.347C59.255,294.347 58.788,294.54 58.441,294.927C58.095,295.3 57.921,295.793 57.921,296.407Z" style="fill-rule:nonzero;"/>
                        <path d="M60.001,245.264C61.055,245.064 61.581,244.45 61.581,243.424C61.581,242.717 61.268,242.217 60.641,241.924C60.015,241.63 58.995,241.484 57.581,241.484C57.995,241.777 58.315,242.177 58.541,242.684C58.768,243.19 58.881,243.757 58.881,244.384C58.881,245.237 58.708,245.997 58.361,246.664C58.001,247.33 57.475,247.857 56.781,248.244C56.075,248.617 55.221,248.804 54.221,248.804C53.235,248.804 52.375,248.604 51.641,248.204C50.908,247.79 50.341,247.21 49.941,246.464C49.541,245.704 49.341,244.81 49.341,243.784C49.341,241.81 49.955,240.43 51.181,239.644C52.408,238.857 54.215,238.464 56.601,238.464C58.335,238.464 59.768,238.624 60.901,238.944C62.021,239.25 62.875,239.777 63.461,240.524C64.048,241.257 64.341,242.264 64.341,243.544C64.341,244.557 64.141,245.424 63.741,246.144C63.341,246.85 62.815,247.397 62.161,247.784C61.508,248.157 60.788,248.37 60.001,248.424L60.001,245.264ZM56.181,243.604C56.181,243.044 56.015,242.597 55.681,242.264C55.335,241.93 54.868,241.764 54.281,241.764C53.641,241.764 53.148,241.937 52.801,242.284C52.455,242.63 52.281,243.097 52.281,243.684C52.281,244.27 52.461,244.737 52.821,245.084C53.168,245.417 53.648,245.584 54.261,245.584C54.835,245.584 55.301,245.417 55.661,245.084C56.008,244.737 56.181,244.244 56.181,243.604Z" style="fill-rule:nonzero;"/>
                        <path d="M52.861,198.565L49.681,198.565L49.681,193.025L64.281,193.025L64.281,196.585L52.861,196.585L52.861,198.565ZM86.781,198.205C84.488,198.205 82.681,197.765 81.361,196.885C80.041,195.992 79.381,194.559 79.381,192.585C79.381,190.612 80.041,189.185 81.361,188.305C82.681,187.412 84.488,186.965 86.781,186.965C89.101,186.965 90.921,187.412 92.241,188.305C93.561,189.185 94.221,190.612 94.221,192.585C94.221,194.559 93.561,195.992 92.241,196.885C90.921,197.765 89.101,198.205 86.781,198.205ZM86.781,190.325C85.435,190.325 84.401,190.472 83.681,190.765C82.948,191.059 82.581,191.665 82.581,192.585C82.581,193.505 82.948,194.112 83.681,194.405C84.401,194.699 85.435,194.845 86.781,194.845C87.688,194.845 88.441,194.792 89.041,194.685C89.628,194.579 90.108,194.365 90.481,194.045C90.841,193.712 91.021,193.225 91.021,192.585C91.021,191.945 90.841,191.465 90.481,191.145C90.108,190.812 89.628,190.592 89.041,190.485C88.441,190.379 87.688,190.325 86.781,190.325Z" style="fill-rule:nonzero;"/>
                        <path d="M52.861,142.448L49.681,142.448L49.681,136.908L64.281,136.908L64.281,140.468L52.861,140.468L52.861,142.448ZM82.861,142.448L79.681,142.448L79.681,136.908L94.281,136.908L94.281,140.468L82.861,140.468L82.861,142.448Z" style="fill-rule:nonzero;"/>
                        <path d="M52.861,90.171L49.681,90.171L49.681,84.631L64.281,84.631L64.281,88.191L52.861,88.191L52.861,90.171ZM91.541,89.931C91.181,89.478 91.015,89.271 91.041,89.311C89.961,88.004 89.075,86.978 88.381,86.231C87.688,85.471 86.961,84.831 86.201,84.311C85.441,83.791 84.701,83.531 83.981,83.531C83.435,83.531 83.008,83.658 82.701,83.911C82.395,84.164 82.241,84.544 82.241,85.051C82.241,85.558 82.435,85.958 82.821,86.251C83.195,86.531 83.728,86.671 84.421,86.671L84.421,89.971C83.288,89.944 82.341,89.704 81.581,89.251C80.821,88.784 80.261,88.178 79.901,87.431C79.541,86.671 79.361,85.831 79.361,84.911C79.361,83.324 79.768,82.131 80.581,81.331C81.395,80.518 82.455,80.111 83.761,80.111C85.188,80.111 86.515,80.598 87.741,81.571C88.955,82.544 90.141,83.784 91.301,85.291L91.301,79.891L94.081,79.891L94.081,89.931L91.541,89.931Z" style="fill-rule:nonzero;"/>
                        <path d="M52.861,36.358L49.681,36.358L49.681,30.818L64.281,30.818L64.281,34.378L52.861,34.378L52.861,36.358ZM83.801,35.878C82.375,35.825 81.275,35.358 80.501,34.478C79.728,33.598 79.341,32.405 79.341,30.898C79.341,29.898 79.515,29.045 79.861,28.338C80.208,27.618 80.681,27.078 81.281,26.718C81.881,26.345 82.555,26.158 83.301,26.158C84.181,26.158 84.901,26.378 85.461,26.818C86.008,27.258 86.381,27.772 86.581,28.358L86.661,28.358C86.915,27.598 87.335,26.998 87.921,26.558C88.508,26.118 89.261,25.898 90.181,25.898C91.008,25.898 91.741,26.092 92.381,26.478C93.008,26.852 93.501,27.405 93.861,28.138C94.221,28.858 94.401,29.718 94.401,30.718C94.401,32.318 94.008,33.598 93.221,34.558C92.435,35.505 91.248,36.005 89.661,36.058L89.661,32.738C90.248,32.725 90.715,32.558 91.061,32.238C91.395,31.918 91.561,31.452 91.561,30.838C91.561,30.318 91.415,29.918 91.121,29.638C90.815,29.345 90.415,29.198 89.921,29.198C89.281,29.198 88.821,29.405 88.541,29.818C88.248,30.218 88.101,30.865 88.101,31.758L88.101,32.398L85.321,32.398L85.321,31.758C85.321,31.078 85.208,30.532 84.981,30.118C84.741,29.692 84.321,29.478 83.721,29.478C83.241,29.478 82.868,29.612 82.601,29.878C82.335,30.145 82.201,30.512 82.201,30.978C82.201,31.485 82.355,31.865 82.661,32.118C82.968,32.358 83.348,32.498 83.801,32.538L83.801,35.878Z" style="fill-rule:nonzero;"/>
                        <path d="M2.305,728.777L43.433,728.777" style="fill:none;fill-rule:nonzero;stroke:black;stroke-width:2px;"/>
                        <path d="M2.305,674.965L43.433,674.965" style="fill:none;fill-rule:nonzero;stroke:black;stroke-width:2px;"/>
                        <path d="M2.305,701.871L29.98,701.871" style="fill:none;fill-rule:nonzero;stroke:black;stroke-width:2px;"/>
                        <path d="M2.305,723.395L17.68,723.395" style="fill:none;fill-rule:nonzero;stroke:black;stroke-width:2px;"/>
                        <path d="M2.305,718.016L17.68,718.016" style="fill:none;fill-rule:nonzero;stroke:black;stroke-width:2px;"/>
                        <path d="M2.305,712.633L17.68,712.633" style="fill:none;fill-rule:nonzero;stroke:black;stroke-width:2px;"/>
                        <path d="M2.305,707.254L17.68,707.254" style="fill:none;fill-rule:nonzero;stroke:black;stroke-width:2px;"/>
                        <path d="M2.305,696.488L17.68,696.488" style="fill:none;fill-rule:nonzero;stroke:black;stroke-width:2px;"/>
                        <path d="M2.305,691.109L17.68,691.109" style="fill:none;fill-rule:nonzero;stroke:black;stroke-width:2px;"/>
                        <path d="M2.305,685.727L17.68,685.727" style="fill:none;fill-rule:nonzero;stroke:black;stroke-width:2px;"/>
                        <path d="M2.305,680.348L17.68,680.348" style="fill:none;fill-rule:nonzero;stroke:black;stroke-width:2px;"/>
                        <path d="M2.305,674.965L43.433,674.965" style="fill:none;fill-rule:nonzero;stroke:black;stroke-width:2px;"/>
                        <path d="M2.305,621.152L43.433,621.152" style="fill:none;fill-rule:nonzero;stroke:black;stroke-width:2px;"/>
                        <path d="M2.305,648.059L29.98,648.059" style="fill:none;fill-rule:nonzero;stroke:black;stroke-width:2px;"/>
                        <path d="M2.305,669.582L17.68,669.582" style="fill:none;fill-rule:nonzero;stroke:black;stroke-width:2px;"/>
                        <path d="M2.305,664.203L17.68,664.203" style="fill:none;fill-rule:nonzero;stroke:black;stroke-width:2px;"/>
                        <path d="M2.305,658.82L17.68,658.82" style="fill:none;fill-rule:nonzero;stroke:black;stroke-width:2px;"/>
                        <path d="M2.305,653.441L17.68,653.441" style="fill:none;fill-rule:nonzero;stroke:black;stroke-width:2px;"/>
                        <path d="M2.305,642.676L17.68,642.676" style="fill:none;fill-rule:nonzero;stroke:black;stroke-width:2px;"/>
                        <path d="M2.305,637.297L17.68,637.297" style="fill:none;fill-rule:nonzero;stroke:black;stroke-width:2px;"/>
                        <path d="M2.305,631.914L17.68,631.914" style="fill:none;fill-rule:nonzero;stroke:black;stroke-width:2px;"/>
                        <path d="M2.305,626.535L17.68,626.535" style="fill:none;fill-rule:nonzero;stroke:black;stroke-width:2px;"/>
                        <path d="M2.305,621.152L43.433,621.152" style="fill:none;fill-rule:nonzero;stroke:black;stroke-width:2px;"/>
                        <path d="M2.305,567.34L43.433,567.34" style="fill:none;fill-rule:nonzero;stroke:black;stroke-width:2px;"/>
                        <path d="M2.305,594.246L29.98,594.246" style="fill:none;fill-rule:nonzero;stroke:black;stroke-width:2px;"/>
                        <path d="M2.305,615.77L17.68,615.77" style="fill:none;fill-rule:nonzero;stroke:black;stroke-width:2px;"/>
                        <path d="M2.305,610.391L17.68,610.391" style="fill:none;fill-rule:nonzero;stroke:black;stroke-width:2px;"/>
                        <path d="M2.305,605.008L17.68,605.008" style="fill:none;fill-rule:nonzero;stroke:black;stroke-width:2px;"/>
                        <path d="M2.305,599.629L17.68,599.629" style="fill:none;fill-rule:nonzero;stroke:black;stroke-width:2px;"/>
                        <path d="M2.305,588.863L17.68,588.863" style="fill:none;fill-rule:nonzero;stroke:black;stroke-width:2px;"/>
                        <path d="M2.305,583.484L17.68,583.484" style="fill:none;fill-rule:nonzero;stroke:black;stroke-width:2px;"/>
                        <path d="M2.305,578.102L17.68,578.102" style="fill:none;fill-rule:nonzero;stroke:black;stroke-width:2px;"/>
                        <path d="M2.305,572.723L17.68,572.723" style="fill:none;fill-rule:nonzero;stroke:black;stroke-width:2px;"/>
                        <path d="M2.305,567.34L43.433,567.34" style="fill:none;fill-rule:nonzero;stroke:black;stroke-width:2px;"/>
                        <path d="M2.305,513.527L43.433,513.527" style="fill:none;fill-rule:nonzero;stroke:black;stroke-width:2px;"/>
                        <path d="M2.305,540.434L29.98,540.434" style="fill:none;fill-rule:nonzero;stroke:black;stroke-width:2px;"/>
                        <path d="M2.305,561.957L17.68,561.957" style="fill:none;fill-rule:nonzero;stroke:black;stroke-width:2px;"/>
                        <path d="M2.305,556.578L17.68,556.578" style="fill:none;fill-rule:nonzero;stroke:black;stroke-width:2px;"/>
                        <path d="M2.305,551.195L17.68,551.195" style="fill:none;fill-rule:nonzero;stroke:black;stroke-width:2px;"/>
                        <path d="M2.305,545.816L17.68,545.816" style="fill:none;fill-rule:nonzero;stroke:black;stroke-width:2px;"/>
                        <path d="M2.305,535.051L17.68,535.051" style="fill:none;fill-rule:nonzero;stroke:black;stroke-width:2px;"/>
                        <path d="M2.305,529.672L17.68,529.672" style="fill:none;fill-rule:nonzero;stroke:black;stroke-width:2px;"/>
                        <path d="M2.305,524.289L17.68,524.289" style="fill:none;fill-rule:nonzero;stroke:black;stroke-width:2px;"/>
                        <path d="M2.305,518.91L17.68,518.91" style="fill:none;fill-rule:nonzero;stroke:black;stroke-width:2px;"/>
                        <path d="M2.305,513.527L43.433,513.527" style="fill:none;fill-rule:nonzero;stroke:black;stroke-width:2px;"/>
                        <path d="M2.305,459.715L43.433,459.715" style="fill:none;fill-rule:nonzero;stroke:black;stroke-width:2px;"/>
                        <path d="M2.305,486.621L29.98,486.621" style="fill:none;fill-rule:nonzero;stroke:black;stroke-width:2px;"/>
                        <path d="M2.305,508.145L17.68,508.145" style="fill:none;fill-rule:nonzero;stroke:black;stroke-width:2px;"/>
                        <path d="M2.305,502.766L17.68,502.766" style="fill:none;fill-rule:nonzero;stroke:black;stroke-width:2px;"/>
                        <path d="M2.305,497.383L17.68,497.383" style="fill:none;fill-rule:nonzero;stroke:black;stroke-width:2px;"/>
                        <path d="M2.305,492.004L17.68,492.004" style="fill:none;fill-rule:nonzero;stroke:black;stroke-width:2px;"/>
                        <path d="M2.305,481.238L17.68,481.238" style="fill:none;fill-rule:nonzero;stroke:black;stroke-width:2px;"/>
                        <path d="M2.305,475.859L17.68,475.859" style="fill:none;fill-rule:nonzero;stroke:black;stroke-width:2px;"/>
                        <path d="M2.305,470.477L17.68,470.477" style="fill:none;fill-rule:nonzero;stroke:black;stroke-width:2px;"/>
                        <path d="M2.305,465.098L17.68,465.098" style="fill:none;fill-rule:nonzero;stroke:black;stroke-width:2px;"/>
                        <path d="M2.305,459.715L43.433,459.715" style="fill:none;fill-rule:nonzero;stroke:black;stroke-width:2px;"/>
                        <path d="M2.305,405.902L43.433,405.902" style="fill:none;fill-rule:nonzero;stroke:black;stroke-width:2px;"/>
                        <path d="M2.305,432.809L29.98,432.809" style="fill:none;fill-rule:nonzero;stroke:black;stroke-width:2px;"/>
                        <path d="M2.305,454.332L17.68,454.332" style="fill:none;fill-rule:nonzero;stroke:black;stroke-width:2px;"/>
                        <path d="M2.305,448.953L17.68,448.953" style="fill:none;fill-rule:nonzero;stroke:black;stroke-width:2px;"/>
                        <path d="M2.305,443.57L17.68,443.57" style="fill:none;fill-rule:nonzero;stroke:black;stroke-width:2px;"/>
                        <path d="M2.305,438.191L17.68,438.191" style="fill:none;fill-rule:nonzero;stroke:black;stroke-width:2px;"/>
                        <path d="M2.305,427.426L17.68,427.426" style="fill:none;fill-rule:nonzero;stroke:black;stroke-width:2px;"/>
                        <path d="M2.305,422.047L17.68,422.047" style="fill:none;fill-rule:nonzero;stroke:black;stroke-width:2px;"/>
                        <path d="M2.305,416.664L17.68,416.664" style="fill:none;fill-rule:nonzero;stroke:black;stroke-width:2px;"/>
                        <path d="M2.305,411.285L17.68,411.285" style="fill:none;fill-rule:nonzero;stroke:black;stroke-width:2px;"/>
                        <path d="M2.305,405.902L43.433,405.902" style="fill:none;fill-rule:nonzero;stroke:black;stroke-width:2px;"/>
                        <path d="M2.305,352.09L43.433,352.09" style="fill:none;fill-rule:nonzero;stroke:black;stroke-width:2px;"/>
                        <path d="M2.305,378.996L29.98,378.996" style="fill:none;fill-rule:nonzero;stroke:black;stroke-width:2px;"/>
                        <path d="M2.305,400.52L17.68,400.52" style="fill:none;fill-rule:nonzero;stroke:black;stroke-width:2px;"/>
                        <path d="M2.305,395.141L17.68,395.141" style="fill:none;fill-rule:nonzero;stroke:black;stroke-width:2px;"/>
                        <path d="M2.305,389.758L17.68,389.758" style="fill:none;fill-rule:nonzero;stroke:black;stroke-width:2px;"/>
                        <path d="M2.305,384.379L17.68,384.379" style="fill:none;fill-rule:nonzero;stroke:black;stroke-width:2px;"/>
                        <path d="M2.305,373.613L17.68,373.613" style="fill:none;fill-rule:nonzero;stroke:black;stroke-width:2px;"/>
                        <path d="M2.305,368.234L17.68,368.234" style="fill:none;fill-rule:nonzero;stroke:black;stroke-width:2px;"/>
                        <path d="M2.305,362.852L17.68,362.852" style="fill:none;fill-rule:nonzero;stroke:black;stroke-width:2px;"/>
                        <path d="M2.305,357.473L17.68,357.473" style="fill:none;fill-rule:nonzero;stroke:black;stroke-width:2px;"/>
                        <path d="M2.305,352.09L43.433,352.09" style="fill:none;fill-rule:nonzero;stroke:black;stroke-width:2px;"/>
                        <path d="M2.305,298.277L43.433,298.277" style="fill:none;fill-rule:nonzero;stroke:black;stroke-width:2px;"/>
                        <path d="M2.305,325.184L29.98,325.184" style="fill:none;fill-rule:nonzero;stroke:black;stroke-width:2px;"/>
                        <path d="M2.305,346.707L17.68,346.707" style="fill:none;fill-rule:nonzero;stroke:black;stroke-width:2px;"/>
                        <path d="M2.305,341.328L17.68,341.328" style="fill:none;fill-rule:nonzero;stroke:black;stroke-width:2px;"/>
                        <path d="M2.305,335.945L17.68,335.945" style="fill:none;fill-rule:nonzero;stroke:black;stroke-width:2px;"/>
                        <path d="M2.305,330.566L17.68,330.566" style="fill:none;fill-rule:nonzero;stroke:black;stroke-width:2px;"/>
                        <path d="M2.305,319.801L17.68,319.801" style="fill:none;fill-rule:nonzero;stroke:black;stroke-width:2px;"/>
                        <path d="M2.305,314.422L17.68,314.422" style="fill:none;fill-rule:nonzero;stroke:black;stroke-width:2px;"/>
                        <path d="M2.305,309.039L17.68,309.039" style="fill:none;fill-rule:nonzero;stroke:black;stroke-width:2px;"/>
                        <path d="M2.305,303.66L17.68,303.66" style="fill:none;fill-rule:nonzero;stroke:black;stroke-width:2px;"/>
                        <path d="M2.305,298.277L43.433,298.277" style="fill:none;fill-rule:nonzero;stroke:black;stroke-width:2px;"/>
                        <path d="M2.305,244.465L43.433,244.465" style="fill:none;fill-rule:nonzero;stroke:black;stroke-width:2px;"/>
                        <path d="M2.305,271.371L29.98,271.371" style="fill:none;fill-rule:nonzero;stroke:black;stroke-width:2px;"/>
                        <path d="M2.305,292.895L17.68,292.895" style="fill:none;fill-rule:nonzero;stroke:black;stroke-width:2px;"/>
                        <path d="M2.305,287.516L17.68,287.516" style="fill:none;fill-rule:nonzero;stroke:black;stroke-width:2px;"/>
                        <path d="M2.305,282.133L17.68,282.133" style="fill:none;fill-rule:nonzero;stroke:black;stroke-width:2px;"/>
                        <path d="M2.305,276.754L17.68,276.754" style="fill:none;fill-rule:nonzero;stroke:black;stroke-width:2px;"/>
                        <path d="M2.305,265.988L17.68,265.988" style="fill:none;fill-rule:nonzero;stroke:black;stroke-width:2px;"/>
                        <path d="M2.305,260.609L17.68,260.609" style="fill:none;fill-rule:nonzero;stroke:black;stroke-width:2px;"/>
                        <path d="M2.305,255.227L17.68,255.227" style="fill:none;fill-rule:nonzero;stroke:black;stroke-width:2px;"/>
                        <path d="M2.305,249.848L17.68,249.848" style="fill:none;fill-rule:nonzero;stroke:black;stroke-width:2px;"/>
                        <path d="M2.305,244.465L43.433,244.465" style="fill:none;fill-rule:nonzero;stroke:black;stroke-width:2px;"/>
                        <path d="M2.305,190.652L43.433,190.652" style="fill:none;fill-rule:nonzero;stroke:black;stroke-width:2px;"/>
                        <path d="M2.305,217.559L29.98,217.559" style="fill:none;fill-rule:nonzero;stroke:black;stroke-width:2px;"/>
                        <path d="M2.305,239.082L17.68,239.082" style="fill:none;fill-rule:nonzero;stroke:black;stroke-width:2px;"/>
                        <path d="M2.305,233.703L17.68,233.703" style="fill:none;fill-rule:nonzero;stroke:black;stroke-width:2px;"/>
                        <path d="M2.305,228.32L17.68,228.32" style="fill:none;fill-rule:nonzero;stroke:black;stroke-width:2px;"/>
                        <path d="M2.305,222.941L17.68,222.941" style="fill:none;fill-rule:nonzero;stroke:black;stroke-width:2px;"/>
                        <path d="M2.305,212.176L17.68,212.176" style="fill:none;fill-rule:nonzero;stroke:black;stroke-width:2px;"/>
                        <path d="M2.305,206.797L17.68,206.797" style="fill:none;fill-rule:nonzero;stroke:black;stroke-width:2px;"/>
                        <path d="M2.305,201.414L17.68,201.414" style="fill:none;fill-rule:nonzero;stroke:black;stroke-width:2px;"/>
                        <path d="M2.305,196.035L17.68,196.035" style="fill:none;fill-rule:nonzero;stroke:black;stroke-width:2px;"/>
                        <path d="M2.305,190.652L43.433,190.652" style="fill:none;fill-rule:nonzero;stroke:black;stroke-width:2px;"/>
                        <path d="M2.305,136.84L43.433,136.84" style="fill:none;fill-rule:nonzero;stroke:black;stroke-width:2px;"/>
                        <path d="M2.305,163.746L29.98,163.746" style="fill:none;fill-rule:nonzero;stroke:black;stroke-width:2px;"/>
                        <path d="M2.305,185.27L17.68,185.27" style="fill:none;fill-rule:nonzero;stroke:black;stroke-width:2px;"/>
                        <path d="M2.305,179.891L17.68,179.891" style="fill:none;fill-rule:nonzero;stroke:black;stroke-width:2px;"/>
                        <path d="M2.305,174.508L17.68,174.508" style="fill:none;fill-rule:nonzero;stroke:black;stroke-width:2px;"/>
                        <path d="M2.305,169.129L17.68,169.129" style="fill:none;fill-rule:nonzero;stroke:black;stroke-width:2px;"/>
                        <path d="M2.305,158.363L17.68,158.363" style="fill:none;fill-rule:nonzero;stroke:black;stroke-width:2px;"/>
                        <path d="M2.305,152.984L17.68,152.984" style="fill:none;fill-rule:nonzero;stroke:black;stroke-width:2px;"/>
                        <path d="M2.305,147.602L17.68,147.602" style="fill:none;fill-rule:nonzero;stroke:black;stroke-width:2px;"/>
                        <path d="M2.305,142.223L17.68,142.223" style="fill:none;fill-rule:nonzero;stroke:black;stroke-width:2px;"/>
                        <path d="M2.305,136.84L43.433,136.84" style="fill:none;fill-rule:nonzero;stroke:black;stroke-width:2px;"/>
                        <path d="M2.305,83.027L43.433,83.027" style="fill:none;fill-rule:nonzero;stroke:black;stroke-width:2px;"/>
                        <path d="M2.305,109.934L29.98,109.934" style="fill:none;fill-rule:nonzero;stroke:black;stroke-width:2px;"/>
                        <path d="M2.305,131.457L17.68,131.457" style="fill:none;fill-rule:nonzero;stroke:black;stroke-width:2px;"/>
                        <path d="M2.305,126.078L17.68,126.078" style="fill:none;fill-rule:nonzero;stroke:black;stroke-width:2px;"/>
                        <path d="M2.305,120.695L17.68,120.695" style="fill:none;fill-rule:nonzero;stroke:black;stroke-width:2px;"/>
                        <path d="M2.305,115.316L17.68,115.316" style="fill:none;fill-rule:nonzero;stroke:black;stroke-width:2px;"/>
                        <path d="M2.305,104.551L17.68,104.551" style="fill:none;fill-rule:nonzero;stroke:black;stroke-width:2px;"/>
                        <path d="M2.305,99.172L17.68,99.172" style="fill:none;fill-rule:nonzero;stroke:black;stroke-width:2px;"/>
                        <path d="M2.305,93.789L17.68,93.789" style="fill:none;fill-rule:nonzero;stroke:black;stroke-width:2px;"/>
                        <path d="M2.305,88.41L17.68,88.41" style="fill:none;fill-rule:nonzero;stroke:black;stroke-width:2px;"/>
                        <path d="M2.305,83.023L43.433,83.023" style="fill:none;fill-rule:nonzero;stroke:black;stroke-width:2px;"/>
                        <path d="M2.305,29.211L43.433,29.211" style="fill:none;fill-rule:nonzero;stroke:black;stroke-width:2px;"/>
                        <path d="M2.305,56.117L29.98,56.117" style="fill:none;fill-rule:nonzero;stroke:black;stroke-width:2px;"/>
                        <path d="M2.305,77.644L17.68,77.644" style="fill:none;fill-rule:nonzero;stroke:black;stroke-width:2px;"/>
                        <path d="M2.305,72.262L17.68,72.262" style="fill:none;fill-rule:nonzero;stroke:black;stroke-width:2px;"/>
                        <path d="M2.305,66.883L17.68,66.883" style="fill:none;fill-rule:nonzero;stroke:black;stroke-width:2px;"/>
                        <path d="M2.305,61.5L17.68,61.5" style="fill:none;fill-rule:nonzero;stroke:black;stroke-width:2px;"/>
                        <path d="M2.305,50.738L17.68,50.738" style="fill:none;fill-rule:nonzero;stroke:black;stroke-width:2px;"/>
                        <path d="M2.305,45.356L17.68,45.356" style="fill:none;fill-rule:nonzero;stroke:black;stroke-width:2px;"/>
                        <path d="M2.305,39.977L17.68,39.977" style="fill:none;fill-rule:nonzero;stroke:black;stroke-width:2px;"/>
                        <path d="M2.305,34.594L17.68,34.594" style="fill:none;fill-rule:nonzero;stroke:black;stroke-width:2px;"/>
                        <path d="M2.305,23.832L17.68,23.832" style="fill:none;fill-rule:nonzero;stroke:black;stroke-width:2px;"/>
                        <path d="M2.305,18.449L17.68,18.449" style="fill:none;fill-rule:nonzero;stroke:black;stroke-width:2px;"/>
                        <path d="M2.305,13.07L17.68,13.07" style="fill:none;fill-rule:nonzero;stroke:black;stroke-width:2px;"/>
                        <path d="M2.305,7.688L17.68,7.688" style="fill:none;fill-rule:nonzero;stroke:black;stroke-width:2px;"/>
                    </g>
                </g>
            </g>
        </g>
    </g>
</svg>
