<svg width="24" height="24" viewBox="0 0 24 24" fill="none" xmlns="http://www.w3.org/2000/svg">
<path d="M24 0H0V24H24V0Z" fill="#50ABF1"/>
<path d="M3.17873 17.7914C4.77599 18.8045 6.67069 19.3907 8.70173 19.3907C14.4077 19.3907 19.0331 14.7647 19.0331 9.05933C19.0331 8.91687 19.0301 8.77547 19.0246 8.6345C19.231 8.47208 20.5074 7.44901 20.8203 6.7913C20.8203 6.7913 19.7837 7.22208 18.7693 7.32356C18.7672 7.32356 18.7648 7.32404 18.7628 7.32404C18.7628 7.32404 18.7648 7.32304 18.7683 7.32056C18.8617 7.2581 20.1686 6.36847 20.3456 5.30848C20.3456 5.30848 19.6124 5.69981 18.5858 6.04217C18.4159 6.09863 18.238 6.15414 18.0546 6.20559C17.3929 5.49938 16.4523 5.05859 15.4083 5.05859C13.4057 5.05859 11.7829 6.68087 11.7829 8.68194C11.7829 8.96432 11.8154 9.23917 11.8769 9.50306C11.597 9.49158 7.3354 9.25265 4.43621 5.74173C4.43621 5.74173 2.70351 8.10718 5.46877 10.5396C5.46877 10.5396 4.62817 10.5061 3.90295 10.0728C3.90295 10.0728 3.63658 12.9385 6.76817 13.6712C6.76817 13.6712 6.15196 13.9046 5.16891 13.7381C5.16891 13.7381 5.71865 16.0536 8.50093 16.27C8.50093 16.27 6.30084 18.2575 3.17773 17.7912L3.17873 17.7914Z" fill="white"/>
</svg>
