<?xml version="1.0" encoding="UTF-8" standalone="no"?><!DOCTYPE svg PUBLIC "-//W3C//DTD SVG 1.1//EN" "http://www.w3.org/Graphics/SVG/1.1/DTD/svg11.dtd"><svg width="100%" height="100%" viewBox="0 0 7 6" version="1.1" xmlns="http://www.w3.org/2000/svg" xmlns:xlink="http://www.w3.org/1999/xlink" xml:space="preserve" xmlns:serif="http://www.serif.com/" style="fill-rule:evenodd;clip-rule:evenodd;stroke-linejoin:round;stroke-miterlimit:2;"><path d="M6.288,3.299l-0,-1.794l0.074,-0.023c0.287,-0.086 0.347,-0.231 0.347,-0.338c-0,-0.107 -0.06,-0.253 -0.347,-0.339l-2.451,-0.735c-0.15,-0.045 -0.348,-0.07 -0.557,-0.07c-0.208,0 -0.406,0.025 -0.557,0.07l-2.45,0.735c-0.287,0.086 -0.347,0.232 -0.347,0.339c-0,0.107 0.06,0.252 0.347,0.338l0.916,0.275l0,1.482c0,0.184 0.12,0.443 0.69,0.633c0.377,0.126 0.875,0.195 1.401,0.195c0.527,0 1.025,-0.069 1.402,-0.195c0.57,-0.19 0.69,-0.449 0.69,-0.633l-0,-1.482l0.449,-0.134l-0,1.676c-0.245,0.083 -0.421,0.314 -0.421,0.586l-0,0.842c-0,0.34 0.277,0.617 0.617,0.617c0.341,0 0.618,-0.277 0.618,-0.617l-0,-0.842c-0,-0.272 -0.177,-0.503 -0.421,-0.586Zm-3.378,-2.852c0.114,-0.034 0.276,-0.054 0.444,-0.054c0.169,0 0.331,0.02 0.445,0.054l2.323,0.697l-0.93,0.279c-0.001,0 -0.001,0 -0.002,0.001l-1.391,0.417c-0.114,0.034 -0.276,0.054 -0.445,0.054c-0.168,-0 -0.33,-0.02 -0.444,-0.054l-1.391,-0.417c-0.001,-0.001 -0.001,-0.001 -0.002,-0.001l-0.93,-0.279l2.323,-0.697Zm2.143,2.276c-0,0.541 -0.072,0.66 -0.421,0.776c-0.338,0.113 -0.792,0.175 -1.278,0.175c-0.485,0 -0.939,-0.062 -1.277,-0.175c-0.349,-0.116 -0.421,-0.235 -0.421,-0.26l0,-1.364l1.141,0.343c0.151,0.045 0.349,0.07 0.557,0.07c0.209,-0 0.407,-0.025 0.557,-0.07l1.142,-0.343l-0,0.848Zm1.263,2.004c-0,0.124 -0.101,0.224 -0.225,0.224c-0.124,0 -0.224,-0.1 -0.224,-0.224l-0,-0.842c-0,-0.124 0.1,-0.225 0.224,-0.225c0.124,0 0.225,0.101 0.225,0.225l-0,0.842Z" style="fill:#fff;fill-rule:nonzero;"/></svg>