<?xml version="1.0" encoding="UTF-8" standalone="no"?><!DOCTYPE svg PUBLIC "-//W3C//DTD SVG 1.1//EN" "http://www.w3.org/Graphics/SVG/1.1/DTD/svg11.dtd"><svg width="100%" height="100%" viewBox="0 0 7 7" version="1.1" xmlns="http://www.w3.org/2000/svg" xmlns:xlink="http://www.w3.org/1999/xlink" xml:space="preserve" xmlns:serif="http://www.serif.com/" style="fill-rule:evenodd;clip-rule:evenodd;stroke-linejoin:round;stroke-miterlimit:2;"><path d="M6.072,2.714c-0,-0 -0.001,-0 -0.001,-0l-2.545,-2.546c-0.109,-0.108 -0.253,-0.168 -0.406,-0.168c-0.154,0 -0.298,0.06 -0.407,0.168l-2.544,2.544c-0,0.001 -0.001,0.002 -0.002,0.003c-0.223,0.224 -0.223,0.588 0.001,0.811c0.102,0.102 0.237,0.161 0.381,0.168c0.006,0 0.012,0.001 0.018,0.001l0.101,-0l0,1.873c0,0.37 0.302,0.672 0.673,0.672l0.995,0c0.101,0 0.183,-0.082 0.183,-0.183l0,-1.468c0,-0.17 0.138,-0.307 0.307,-0.307l0.587,-0c0.17,-0 0.307,0.137 0.307,0.307l0,1.468c0,0.101 0.082,0.183 0.183,0.183l0.996,0c0.371,0 0.672,-0.302 0.672,-0.672l0,-1.873l0.094,-0c0.154,-0 0.298,-0.06 0.406,-0.169c0.224,-0.224 0.224,-0.588 0.001,-0.812Z" style="fill:#fff;fill-rule:nonzero;"/></svg>