<?xml version="1.0" encoding="UTF-8" standalone="no"?><!DOCTYPE svg PUBLIC "-//W3C//DTD SVG 1.1//EN" "http://www.w3.org/Graphics/SVG/1.1/DTD/svg11.dtd"><svg width="100%" height="100%" viewBox="0 0 7 6" version="1.1" xmlns="http://www.w3.org/2000/svg" xmlns:xlink="http://www.w3.org/1999/xlink" xml:space="preserve" xmlns:serif="http://www.serif.com/" style="fill-rule:evenodd;clip-rule:evenodd;stroke-linejoin:round;stroke-miterlimit:2;"><path d="M5.556,0l-4.887,0c-0.369,0 -0.669,0.3 -0.669,0.669l-0,3.209c-0,0.369 0.3,0.669 0.669,0.669l1.574,-0c0.019,-0 0.038,0.009 0.049,0.025l0.575,0.778c0.057,0.078 0.146,0.123 0.243,0.124l0.001,-0c0.097,-0 0.185,-0.044 0.243,-0.121l0.588,-0.782c0.011,-0.015 0.029,-0.024 0.048,-0.024l1.566,-0c0.369,-0 0.669,-0.3 0.669,-0.669l-0,-3.209c-0,-0.369 -0.3,-0.669 -0.669,-0.669Zm0.304,3.878c-0,0.029 -0.004,0.057 -0.012,0.083l-1.873,-1.642l1.885,-1.565l-0,3.124Zm-0.304,-3.513c0.055,-0 0.108,0.015 0.152,0.041l-2.401,1.993c-0.113,0.093 -0.276,0.093 -0.388,-0l-2.402,-1.993c0.044,-0.026 0.096,-0.041 0.152,-0.041l4.887,-0Zm-5.18,3.596c-0.007,-0.026 -0.011,-0.054 -0.011,-0.083l-0,-3.125l1.885,1.565l-1.874,1.643Zm3.274,0.391l-0.538,0.716l-0.526,-0.713c-0.08,-0.108 -0.208,-0.173 -0.343,-0.173l-1.566,0l1.857,-1.628l0.152,0.126c0.123,0.102 0.275,0.154 0.427,0.154c0.151,-0 0.303,-0.052 0.427,-0.154l0.151,-0.125l1.856,1.627l-1.557,0c-0.133,0 -0.26,0.064 -0.34,0.17Z" style="fill:#fff;fill-rule:nonzero;"/></svg>