<?xml version="1.0" encoding="UTF-8" standalone="no"?><!DOCTYPE svg PUBLIC "-//W3C//DTD SVG 1.1//EN" "http://www.w3.org/Graphics/SVG/1.1/DTD/svg11.dtd"><svg width="100%" height="100%" viewBox="0 0 6 7" version="1.1" xmlns="http://www.w3.org/2000/svg" xmlns:xlink="http://www.w3.org/1999/xlink" xml:space="preserve" xmlns:serif="http://www.serif.com/" style="fill-rule:evenodd;clip-rule:evenodd;stroke-linejoin:round;stroke-miterlimit:2;"><g><path d="M2.747,0c-0.909,0 -1.648,0.739 -1.648,1.648c-0,0.909 0.739,1.648 1.648,1.648c0.908,0 1.648,-0.739 1.648,-1.648c-0,-0.909 -0.74,-1.648 -1.648,-1.648Zm-0,2.93c-0.707,-0 -1.282,-0.575 -1.282,-1.282c-0,-0.707 0.575,-1.282 1.282,-1.282c0.707,0 1.282,0.575 1.282,1.282c-0,0.707 -0.575,1.282 -1.282,1.282Z" style="fill:#fff;fill-rule:nonzero;"/><path d="M4.797,4.373c-0.451,-0.458 -1.049,-0.711 -1.684,-0.711l-0.733,0c-0.634,0 -1.233,0.253 -1.684,0.711c-0.449,0.456 -0.696,1.057 -0.696,1.694c-0,0.101 0.082,0.183 0.183,0.183l5.127,0c0.101,0 0.183,-0.082 0.183,-0.183c0,-0.637 -0.247,-1.238 -0.696,-1.694Zm-4.423,1.511c0.092,-1.039 0.957,-1.856 2.006,-1.856l0.733,0c1.05,0 1.914,0.817 2.006,1.856l-4.745,-0Z" style="fill:#fff;fill-rule:nonzero;"/></g></svg>